<?xml version="1.0" encoding="utf-8"?>
<!-- Generator: Adobe Illustrator 27.5.0, SVG Export Plug-In . SVG Version: 6.00 Build 0)  -->
<svg version="1.1" id="Illustration" xmlns="http://www.w3.org/2000/svg" xmlns:xlink="http://www.w3.org/1999/xlink" x="0px"
	 y="0px" viewBox="0 0 1200 800" style="enable-background:new 0 0 1200 800;" xml:space="preserve">
<g>
	<linearGradient id="SVGID_1_" gradientUnits="userSpaceOnUse" x1="435.2913" y1="-47.7895" x2="758.273" y2="867.6581">
		<stop  offset="0" style="stop-color:#B37CFF"/>
		<stop  offset="1" style="stop-color:#F895E7"/>
	</linearGradient>
	<path style="opacity:0.24;fill:url(#SVGID_1_);" d="M1123.101,185.132c-28.291-52.53-90.41-92.033-150.872-79.914
		c-36.202,7.257-72.184,31.602-106.896,19.38c-25.02-8.809-39.142-33.791-60.173-49.466c-32.37-24.126-78.317-23.845-117.766-13.035
		c-39.449,10.809-75.561,30.687-114.534,42.976c-66.421,20.944-140.554,18.67-205.437-6.301
		c-28.482-10.962-55.143-26.091-84.139-35.742c-28.996-9.651-61.883-13.399-89.871-1.329c-27.989,12.07-48.073,43.639-38.359,71.498
		c1.937,5.555,4.975,11.028,4.578,16.872c-0.636,9.37-10.099,16.233-19.67,18.317c-9.571,2.084-19.546,0.723-29.36,0.961
		c-44.037,1.068-83.391,39.496-83.6,81.632c-0.173,34.942,22.357,65.647,41.618,95.337c19.261,29.69,36.572,65.315,25.098,98.489
		c-6.804,19.671-22.764,35.06-33.221,53.206c-27.109,47.044-12.618,109.322,25.235,149.003
		c37.853,39.681,94.543,59.097,150.493,63.719c55.95,4.622,112.061-4.055,167.499-12.632
		c55.438-8.577,111.593-17.108,167.515-12.194l-3.006-1.562c109.254,25.819,223.539,32.018,335.144,18.179
		c23.364-2.897,50.186-9.127,60.061-29.588c8.337-17.275,0.851-37.524,2.567-56.479c2.473-27.317,23.903-49.694,47.269-65.576
		c23.366-15.882,49.875-27.702,70.927-46.311c41.183-36.405,55.158-92.752,61.298-146.068
		C1152.264,299.769,1151.391,237.663,1123.101,185.132z"/>
	<g>

			<linearGradient id="SVGID_00000119107457488620192590000011608490223359653304_" gradientUnits="userSpaceOnUse" x1="516.0718" y1="661.7631" x2="715.8047" y2="62.5626">
			<stop  offset="0" style="stop-color:#2B3582"/>
			<stop  offset="1" style="stop-color:#150E42"/>
		</linearGradient>
		<path style="fill:url(#SVGID_00000119107457488620192590000011608490223359653304_);" d="M1031.799,683.5
			c0,8.593-7.038,15.624-15.639,15.624H170.473c-8.601,0-15.639-7.031-15.639-15.624l-7.037-485.993
			c0-8.593,10.124-25.369,28.678-24.108l826.499-21.386c10.792-0.279,21.227,3.875,28.869,11.492
			c7.642,7.618,11.824,18.033,11.569,28.815L1031.799,683.5z"/>

			<linearGradient id="SVGID_00000157274759606901960440000009173175146062797748_" gradientUnits="userSpaceOnUse" x1="961.474" y1="23.1428" x2="-140.2516" y2="1281.5009">
			<stop  offset="0" style="stop-color:#FDF53F"/>
			<stop  offset="1" style="stop-color:#D93C65"/>
		</linearGradient>
		<path style="fill:url(#SVGID_00000157274759606901960440000009173175146062797748_);" d="M1016.359,668.511
			c0,8.137-6.658,14.795-14.796,14.795H190.867c-8.137,0-14.795-6.658-14.795-14.795l-6.64-441.189
			c0.782-26.55,24.059-36.092,38.169-35.528l792.124-21.252c7.582-0.203,14.913,2.718,20.283,8.074
			c5.37,5.356,8.324,12.687,8.133,20.269L1016.359,668.511z"/>
		<g>
			<path style="fill:#FFFFFF;" d="M184.832,457.747c-0.545,0-0.991-0.438-0.999-0.985l-0.525-35.78
				c-0.008-0.552,0.433-1.006,0.985-1.015c0.531,0.036,1.006,0.433,1.015,0.985l0.525,35.78c0.008,0.552-0.433,1.006-0.985,1.015
				C184.843,457.747,184.838,457.747,184.832,457.747z"/>
			<path style="fill:#FFFFFF;" d="M183.545,370.067c-0.546,0-0.992-0.438-1-0.985l-2.013-137.036
				c0.041-9.093,2.841-16.357,8.32-21.607c9.981-9.565,25.616-9.083,26.277-9.058l252.973-6.789c0.559-0.006,1.012,0.42,1.026,0.973
				c0.015,0.552-0.42,1.012-0.973,1.026l-253.029,6.789c-0.7-0.02-15.514-0.482-24.891,8.503
				c-5.073,4.861-7.666,11.642-7.704,20.153l2.013,137.017c0.008,0.552-0.433,1.006-0.985,1.015
				C183.555,370.067,183.55,370.067,183.545,370.067z"/>
		</g>
		<path style="opacity:0.37;fill:#FFFFFF;" d="M211.788,644.036c0.849-36.465,0.533-359.37-1.56-387.257
			c-2.092-27.888,41.341-33.118,108.023-36.257c66.683-3.139,629.311-15.564,643.798-16.738
			c32.562-2.64,39.302,46.03,36.045,151.691c-2.447,79.382-6.504,210.149-8.37,270.286c-0.556,17.906-15.191,32.113-33.106,32.162
			c-135.392,0.372-654.307,1.859-688.852,2.888C228.012,661.995,211.451,658.495,211.788,644.036z"/>
	</g>

		<linearGradient id="SVGID_00000032632345575023966270000008548373860671333054_" gradientUnits="userSpaceOnUse" x1="980.0866" y1="626.123" x2="92.3986" y2="842.047">
		<stop  offset="0" style="stop-color:#2B3582"/>
		<stop  offset="1" style="stop-color:#150E42"/>
	</linearGradient>
	<path style="fill:url(#SVGID_00000032632345575023966270000008548373860671333054_);" d="M1092.899,739.468H110.878
		c-4.128,0-7.505-3.377-7.505-7.505v-27.691c0-4.128,3.377-7.505,7.505-7.505h982.021c4.128,0,7.505,3.377,7.505,7.505v27.691
		C1100.404,736.09,1097.027,739.468,1092.899,739.468z"/>
	<path style="opacity:0.27;fill:#FFFFFF;" d="M965.23,677c26.808,0,48.337-19.001,47.601-42.014
		c-8.587-268.576-28.313-358.245-51.27-359.463c-43.421-2.303-95.227,311.963-144.904,308.466
		c-38.9-2.738-44.806-198.084-65.207-197.795c-23.925,0.339-23.458,269.128-62.309,271.969
		c-46.641,3.41-103.61-379.857-170.987-377.93c-60.638,1.734-78.31,313.986-133.312,314.353
		c-53.762,0.359-78.741-297.7-128.965-297.87c-18.926-0.064-46.636,108.292-81.457,334.033C170.641,655.246,192.85,677,221.628,677
		H965.23z"/>
	<path style="opacity:0.27;fill:#FFFFFF;" d="M221.619,677c-26.808,0-48.337-20.681-47.601-45.729
		c8.587-292.321,57.261-389.932,80.218-391.257c43.421-2.506,39.392,338.362,89.07,334.557
		c26.741-2.048,34.728-214.723,65.835-215.5c33.778-0.844,50.898,251.091,97.59,252.747
		c56.766,2.013,106.081-367.713,156.454-365.153c47.786,2.429,47.309,337.387,120.826,343.869
		c47.711,4.207,75.853-134.407,140.963-132.36c53.29,1.676,119.959,97.219,87.455,168.484
		c-10.974,24.061-30.917,40.234-47.208,50.341H221.619z"/>
	<g>

			<linearGradient id="SVGID_00000116228961393120715820000015456224011242246325_" gradientUnits="userSpaceOnUse" x1="-2953.8623" y1="599.4522" x2="-2991.7964" y2="447.7152" gradientTransform="matrix(-1 0 0 1 -1958.584 0)">
			<stop  offset="0" style="stop-color:#B37CFF"/>
			<stop  offset="1" style="stop-color:#F895E7"/>
		</linearGradient>
		<path style="fill:url(#SVGID_00000116228961393120715820000015456224011242246325_);" d="M977.288,728.643
			c26.811,5.361,61.049-23.869,72.078-55.802c11.351-32.862-9.461-46.628-9.3-92.229c0.182-51.801,27.129-59.608,44.952-129.431
			c4.021-15.753,27.293-106.918-1.55-124.005c-26.668-15.8-101.576,29.543-114.705,87.579
			c-9.362,41.382,19.578,58.757,8.525,106.955c-9.698,42.29-35.187,42.902-44.952,83.704
			C920.447,655.086,942.085,721.605,977.288,728.643z"/>

			<linearGradient id="SVGID_00000145771876541466949700000013588370530173234092_" gradientUnits="userSpaceOnUse" x1="5283.9238" y1="415.0649" x2="5217.106" y2="739.2249" gradientTransform="matrix(1 0 0 1 -4247.4199 0)">
			<stop  offset="0" style="stop-color:#2B3582"/>
			<stop  offset="1" style="stop-color:#150E42"/>
		</linearGradient>
		<path style="fill:url(#SVGID_00000145771876541466949700000013588370530173234092_);" d="M979.235,741.193
			c-7.227-55.811,6.872-141.915,19.973-204.319c14.183-67.563,30.281-122.673,30.442-123.222l2.231,0.655
			c-0.161,0.548-16.237,55.585-30.402,123.062c-13.062,62.223-27.124,148.042-19.938,203.526L979.235,741.193z"/>
	</g>
	<g>

			<linearGradient id="SVGID_00000037666744415752430230000015572173971823430074_" gradientUnits="userSpaceOnUse" x1="5410.0835" y1="451.6915" x2="5132.313" y2="940.0782" gradientTransform="matrix(1 0 0 1 -4247.4199 0)">
			<stop  offset="0" style="stop-color:#A737D5"/>
			<stop  offset="1" style="stop-color:#EF497A"/>
		</linearGradient>
		<path style="fill:url(#SVGID_00000037666744415752430230000015572173971823430074_);" d="M1008.164,722.412
			c-35.169-18.324-47.206-81.248-27.215-101.699c13.508-13.818,32.878,0.716,51.565-13.608c23.86-18.288,6.308-52.731,25.067-97.402
			c15.964-38.015,54.256-73.986,76.632-66.605c23.423,7.726,35.76,65.051,15.756,99.55c-13.009,22.435-32.922,23.537-37.242,44.404
			c-5.013,24.212,19.205,35.254,19.337,58.727C1132.302,687.945,1054.69,746.654,1008.164,722.412z"/>

			<linearGradient id="SVGID_00000158743362633161660630000017958357565579899018_" gradientUnits="userSpaceOnUse" x1="5327.8257" y1="525.0292" x2="5283.4346" y2="740.3856" gradientTransform="matrix(1 0 0 1 -4247.4199 0)">
			<stop  offset="0" style="stop-color:#2B3582"/>
			<stop  offset="1" style="stop-color:#150E42"/>
		</linearGradient>
		<path style="fill:url(#SVGID_00000158743362633161660630000017958357565579899018_);" d="M1027.142,738.527
			c-0.21,0-0.423-0.046-0.624-0.144c-0.712-0.346-1.009-1.202-0.663-1.914c46.624-96.073,60.295-207.527,60.428-208.642
			c0.093-0.786,0.807-1.347,1.592-1.253c0.785,0.093,1.347,0.806,1.253,1.591c-0.133,1.119-13.864,113.052-60.696,209.554
			C1028.184,738.23,1027.674,738.527,1027.142,738.527z"/>
		<path style="fill:#F0F0F0;" d="M1122.798,556.69c-0.147,0-0.296-0.048-0.421-0.144c-0.298-0.233-0.352-0.663-0.119-0.961
			c14.717-18.89,31.027-47.27,25.156-75.198c-3.496-16.633-13.339-25.308-13.438-25.394c-0.286-0.247-0.317-0.679-0.07-0.965
			c0.248-0.286,0.68-0.318,0.966-0.069c0.419,0.362,10.291,9.066,13.882,26.147c3.3,15.698,1.57,41.683-25.415,76.321
			C1123.203,556.599,1123.001,556.69,1122.798,556.69z"/>
		<path style="fill:#F0F0F0;" d="M1004.994,714.022c-0.218,0-0.433-0.104-0.565-0.297c-22.617-33.008-30.329-58.512-22.923-75.804
			c6.585-15.374,23.211-18.235,23.378-18.263c0.374-0.058,0.724,0.193,0.785,0.566c0.061,0.372-0.193,0.725-0.565,0.786
			c-0.16,0.026-16.068,2.784-22.346,17.466c-7.197,16.833,0.474,41.89,22.8,74.474c0.214,0.312,0.134,0.738-0.177,0.952
			C1005.262,713.984,1005.127,714.022,1004.994,714.022z"/>
	</g>
	<g style="opacity:0.55;">
		<path style="fill:#FFFFFF;" d="M225.249,256.159c-0.605,0-1.094,0.49-1.094,1.095v205.969c0,0.605,0.49,1.094,1.094,1.094
			s1.095-0.49,1.095-1.094V257.254C226.343,256.649,225.853,256.159,225.249,256.159z"/>
		<path style="fill:#FFFFFF;" d="M227.33,293.748h-4.164c-3.958,0-7.167,3.209-7.167,7.167V427.06c0,3.958,3.209,7.167,7.167,7.167
			h4.164c3.958,0,7.167-3.209,7.167-7.167V300.915C234.497,296.957,231.289,293.748,227.33,293.748z"/>
		<path style="fill:#FFFFFF;" d="M258.743,402.51c-0.605,0-1.095,0.49-1.095,1.094v142.978c0,0.605,0.49,1.094,1.095,1.094
			c0.605,0,1.095-0.49,1.095-1.094V403.604C259.838,403,259.348,402.51,258.743,402.51z"/>
		<path style="fill:#FFFFFF;" d="M260.825,428.938h-4.164c-3.958,0-7.167,3.209-7.167,7.167v83.183c0,3.958,3.209,7.167,7.167,7.167
			h4.164c3.958,0,7.167-3.209,7.167-7.167v-83.183C267.992,432.147,264.783,428.938,260.825,428.938z"/>
		<path style="fill:#FFFFFF;" d="M292.238,466.309c-0.605,0-1.094,0.49-1.094,1.095v145.173c0,0.605,0.49,1.094,1.094,1.094
			c0.605,0,1.095-0.49,1.095-1.094V467.404C293.333,466.799,292.843,466.309,292.238,466.309z"/>
		<path style="fill:#FFFFFF;" d="M294.32,548.701h-4.164c-3.958,0-7.167,3.209-7.167,7.167v29.106c0,3.958,3.209,7.167,7.167,7.167
			h4.164c3.958,0,7.167-3.209,7.167-7.167v-29.106C301.487,551.909,298.278,548.701,294.32,548.701z"/>
		<path style="fill:#FFFFFF;" d="M325.733,444.504c-0.605,0-1.095,0.49-1.095,1.094v107.484c0,0.605,0.49,1.094,1.095,1.094
			c0.605,0,1.094-0.49,1.094-1.094V445.598C326.828,444.993,326.338,444.504,325.733,444.504z"/>
		<path style="fill:#FFFFFF;" d="M327.815,464.642h-4.164c-3.958,0-7.167,3.209-7.167,7.167v58.975c0,3.958,3.209,7.167,7.167,7.167
			h4.164c3.958,0,7.167-3.209,7.167-7.167v-58.975C334.982,467.851,331.773,464.642,327.815,464.642z"/>
		<path style="fill:#FFFFFF;" d="M359.228,373.014c-0.605,0-1.094,0.49-1.094,1.095v112.483c0,0.605,0.49,1.094,1.094,1.094
			c0.605,0,1.095-0.49,1.095-1.094V374.109C360.323,373.504,359.833,373.014,359.228,373.014z"/>
		<path style="fill:#FFFFFF;" d="M361.31,394.039h-4.164c-3.958,0-7.167,3.209-7.167,7.167v62.384c0,3.958,3.209,7.167,7.167,7.167
			h4.164c3.958,0,7.167-3.209,7.167-7.167v-62.384C368.477,397.248,365.268,394.039,361.31,394.039z"/>
		<path style="fill:#FFFFFF;" d="M627.16,395.229c-0.605,0-1.094,0.49-1.094,1.094v129.335c0,0.605,0.49,1.095,1.094,1.095
			s1.094-0.49,1.094-1.095V396.323C628.254,395.719,627.765,395.229,627.16,395.229z"/>
		<path style="fill:#FFFFFF;" d="M629.242,419.24h-4.164c-3.958,0-7.167,3.209-7.167,7.167v73.878c0,3.958,3.209,7.167,7.167,7.167
			h4.164c3.958,0,7.167-3.209,7.167-7.167v-73.878C636.409,422.448,633.2,419.24,629.242,419.24z"/>
		<path style="fill:#FFFFFF;" d="M660.655,315.591c-0.605,0-1.094,0.49-1.094,1.095v142.978c0,0.605,0.49,1.095,1.094,1.095
			s1.094-0.49,1.094-1.095V316.686C661.749,316.081,661.259,315.591,660.655,315.591z"/>
		<path style="fill:#FFFFFF;" d="M662.737,342.019h-4.164c-3.958,0-7.167,3.209-7.167,7.167v83.183c0,3.958,3.209,7.167,7.167,7.167
			h4.164c3.958,0,7.167-3.209,7.167-7.167v-83.183C669.904,345.228,666.695,342.019,662.737,342.019z"/>
		<path style="fill:#FFFFFF;" d="M694.15,284.128c-0.605,0-1.095,0.49-1.095,1.094v62.49c0,0.605,0.49,1.095,1.095,1.095
			c0.605,0,1.094-0.49,1.094-1.095v-62.49C695.244,284.618,694.754,284.128,694.15,284.128z"/>
		<path style="fill:#FFFFFF;" d="M696.232,320.217h-4.164c-3.958,0-7.167,3.209-7.167,7.167v4.365c0,3.958,3.209,7.167,7.167,7.167
			h4.164c3.958,0,7.167-3.209,7.167-7.167v-4.365C703.398,323.426,700.19,320.217,696.232,320.217z"/>
		<path style="fill:#FFFFFF;" d="M727.645,224.773c-0.605,0-1.094,0.49-1.094,1.095v107.484c0,0.605,0.49,1.095,1.094,1.095
			s1.094-0.49,1.094-1.095V225.868C728.739,225.263,728.249,224.773,727.645,224.773z"/>
		<path style="fill:#FFFFFF;" d="M729.727,244.912h-4.164c-3.958,0-7.167,3.209-7.167,7.167v58.975c0,3.958,3.209,7.167,7.167,7.167
			h4.164c3.958,0,7.167-3.209,7.167-7.167v-58.975C736.893,248.121,733.685,244.912,729.727,244.912z"/>
		<path style="fill:#FFFFFF;" d="M761.14,296.526c-0.605,0-1.095,0.49-1.095,1.095v112.483c0,0.605,0.49,1.095,1.095,1.095
			c0.605,0,1.094-0.49,1.094-1.095V297.62C762.234,297.016,761.744,296.526,761.14,296.526z"/>
		<path style="fill:#FFFFFF;" d="M763.221,317.551h-4.164c-3.958,0-7.167,3.209-7.167,7.167v62.384c0,3.958,3.209,7.167,7.167,7.167
			h4.164c3.958,0,7.167-3.209,7.167-7.167v-62.384C770.388,320.759,767.18,317.551,763.221,317.551z"/>
		<path style="fill:#FFFFFF;" d="M392.723,372.014c-0.605,0-1.094,0.49-1.094,1.094v41.994c0,0.605,0.49,1.094,1.094,1.094
			c0.605,0,1.095-0.49,1.095-1.094v-41.994C393.818,372.504,393.328,372.014,392.723,372.014z"/>
		<path style="fill:#FFFFFF;" d="M395.396,380.55h-5.346c-3.632,0-6.576,2.944-6.576,6.576v1.405c0,3.632,2.944,6.576,6.576,6.576
			h5.346c3.632,0,6.576-2.944,6.576-6.576v-1.405C401.972,383.494,399.028,380.55,395.396,380.55z"/>
		<path style="fill:#FFFFFF;" d="M426.218,322.022c-0.605,0-1.095,0.49-1.095,1.095v73.989c0,0.605,0.49,1.095,1.095,1.095
			c0.605,0,1.094-0.49,1.094-1.095v-73.989C427.312,322.512,426.822,322.022,426.218,322.022z"/>
		<path style="fill:#FFFFFF;" d="M427.46,336.226h-2.484c-3.958,0-7.167,3.209-7.167,7.167v31.548c0,3.958,3.209,7.167,7.167,7.167
			h2.484c3.958,0,7.167-3.209,7.167-7.167v-31.548C434.627,339.435,431.418,336.226,427.46,336.226z"/>
		<path style="fill:#FFFFFF;" d="M459.713,346.519c-0.605,0-1.095,0.49-1.095,1.095v180.972c0,0.605,0.49,1.094,1.095,1.094
			c0.605,0,1.094-0.49,1.094-1.094V347.613C460.807,347.009,460.318,346.519,459.713,346.519z"/>
		<path style="fill:#FFFFFF;" d="M461.795,379.678h-4.164c-3.958,0-7.167,3.209-7.167,7.167v83.581c0,3.958,3.209,7.167,7.167,7.167
			h4.164c3.958,0,7.167-3.209,7.167-7.167v-83.581C468.961,382.887,465.753,379.678,461.795,379.678z"/>
		<path style="fill:#FFFFFF;" d="M493.208,441.504c-0.605,0-1.095,0.49-1.095,1.095v110.483c0,0.605,0.49,1.094,1.095,1.094
			c0.605,0,1.094-0.49,1.094-1.094V442.599C494.302,441.994,493.812,441.504,493.208,441.504z"/>
		<path style="fill:#FFFFFF;" d="M495.29,476.172h-4.164c-3.958,0-7.167,3.209-7.167,7.167v47.078c0,3.958,3.209,7.167,7.167,7.167
			h4.164c3.958,0,7.167-3.209,7.167-7.167v-47.078C502.456,479.381,499.248,476.172,495.29,476.172z"/>
		<path style="fill:#FFFFFF;" d="M526.703,394.011c-0.605,0-1.095,0.49-1.095,1.095v205.968c0,0.605,0.49,1.095,1.095,1.095
			c0.605,0,1.094-0.49,1.094-1.095V395.106C527.797,394.501,527.307,394.011,526.703,394.011z"/>
		<path style="fill:#FFFFFF;" d="M528.784,431.6h-4.164c-3.958,0-7.167,3.209-7.167,7.167v126.145c0,3.958,3.209,7.167,7.167,7.167
			h4.164c3.958,0,7.167-3.209,7.167-7.167V438.767C535.951,434.809,532.743,431.6,528.784,431.6z"/>
		<path style="fill:#FFFFFF;" d="M560.198,538.989c-0.605,0-1.094,0.49-1.094,1.094v89.487c0,0.605,0.49,1.094,1.094,1.094
			c0.605,0,1.095-0.49,1.095-1.094v-89.487C561.292,539.479,560.802,538.989,560.198,538.989z"/>
		<path style="fill:#FFFFFF;" d="M562.154,574.585h-4.164c-3.958,0-7.167,3.209-7.167,7.167v31.653c0,3.958,3.209,7.167,7.167,7.167
			h4.164c3.958,0,7.167-3.209,7.167-7.167v-31.653C569.321,577.794,566.112,574.585,562.154,574.585z"/>
		<path style="fill:#FFFFFF;" d="M795.907,373.014c-0.605,0-1.095,0.49-1.095,1.095v112.483c0,0.605,0.49,1.094,1.095,1.094
			c0.605,0,1.094-0.49,1.094-1.094V374.109C797.002,373.504,796.512,373.014,795.907,373.014z"/>
		<path style="fill:#FFFFFF;" d="M797.989,394.039h-4.164c-3.958,0-7.167,3.209-7.167,7.167v62.384c0,3.958,3.209,7.167,7.167,7.167
			h4.164c3.958,0,7.167-3.209,7.167-7.167v-62.384C805.156,397.248,801.947,394.039,797.989,394.039z"/>
		<path style="fill:#FFFFFF;" d="M829.402,372.014c-0.605,0-1.094,0.49-1.094,1.094v41.994c0,0.605,0.49,1.094,1.094,1.094
			c0.605,0,1.095-0.49,1.095-1.094v-41.994C830.496,372.504,830.006,372.014,829.402,372.014z"/>
		<path style="fill:#FFFFFF;" d="M832.075,380.55h-5.346c-3.632,0-6.576,2.944-6.576,6.576v1.405c0,3.632,2.944,6.576,6.576,6.576
			h5.346c3.632,0,6.576-2.944,6.576-6.576v-1.405C838.65,383.494,835.706,380.55,832.075,380.55z"/>
		<path style="fill:#FFFFFF;" d="M862.897,322.022c-0.605,0-1.094,0.49-1.094,1.095v73.989c0,0.605,0.49,1.095,1.094,1.095
			s1.094-0.49,1.094-1.095v-73.989C863.991,322.512,863.502,322.022,862.897,322.022z"/>
		<path style="fill:#FFFFFF;" d="M864.139,336.226h-2.484c-3.958,0-7.167,3.209-7.167,7.167v31.548c0,3.958,3.209,7.167,7.167,7.167
			h2.484c3.958,0,7.167-3.209,7.167-7.167v-31.548C871.306,339.435,868.097,336.226,864.139,336.226z"/>
		<path style="fill:#FFFFFF;" d="M896.392,346.519c-0.605,0-1.094,0.49-1.094,1.095v180.972c0,0.605,0.49,1.094,1.094,1.094
			s1.095-0.49,1.095-1.094V347.613C897.486,347.009,896.996,346.519,896.392,346.519z"/>
		<path style="fill:#FFFFFF;" d="M898.474,379.678h-4.164c-3.958,0-7.167,3.209-7.167,7.167v83.581c0,3.958,3.209,7.167,7.167,7.167
			h4.164c3.958,0,7.167-3.209,7.167-7.167v-83.581C905.64,382.887,902.432,379.678,898.474,379.678z"/>
		<path style="fill:#FFFFFF;" d="M929.886,441.504c-0.605,0-1.094,0.49-1.094,1.095v110.483c0,0.605,0.49,1.094,1.094,1.094
			c0.605,0,1.095-0.49,1.095-1.094V442.599C930.981,441.994,930.491,441.504,929.886,441.504z"/>
		<path style="fill:#FFFFFF;" d="M931.969,476.172h-4.164c-3.958,0-7.167,3.209-7.167,7.167v47.078c0,3.958,3.209,7.167,7.167,7.167
			h4.164c3.958,0,7.167-3.209,7.167-7.167v-47.078C939.135,479.381,935.927,476.172,931.969,476.172z"/>
		<path style="fill:#FFFFFF;" d="M963.382,394.011c-0.605,0-1.095,0.49-1.095,1.095v205.968c0,0.605,0.49,1.095,1.095,1.095
			s1.094-0.49,1.094-1.095V395.106C964.476,394.501,963.986,394.011,963.382,394.011z"/>
		<path style="fill:#FFFFFF;" d="M965.463,431.6H961.3c-3.958,0-7.167,3.209-7.167,7.167v126.145c0,3.958,3.209,7.167,7.167,7.167
			h4.164c3.958,0,7.167-3.209,7.167-7.167V438.767C972.63,434.809,969.421,431.6,965.463,431.6z"/>
		<path style="fill:#FFFFFF;" d="M996.876,538.989c-0.605,0-1.094,0.49-1.094,1.094v89.487c0,0.605,0.49,1.094,1.094,1.094
			s1.094-0.49,1.094-1.094v-89.487C997.971,539.479,997.481,538.989,996.876,538.989z"/>
		<path style="fill:#FFFFFF;" d="M998.833,574.585h-4.164c-3.958,0-7.167,3.209-7.167,7.167v31.653c0,3.958,3.209,7.167,7.167,7.167
			h4.164c3.958,0,7.167-3.209,7.167-7.167v-31.653C1006,577.794,1002.791,574.585,998.833,574.585z"/>
		<path style="fill:#FFFFFF;" d="M593.692,477.894c-0.605,0-1.094,0.49-1.094,1.095v134.979c0,0.605,0.49,1.095,1.094,1.095
			c0.605,0,1.094-0.49,1.094-1.095V478.988C594.787,478.384,594.297,477.894,593.692,477.894z"/>
		<path style="fill:#FFFFFF;" d="M595.774,502.905h-4.164c-3.958,0-7.167,3.209-7.167,7.167v77.728c0,3.958,3.209,7.167,7.167,7.167
			h4.164c3.958,0,7.167-3.209,7.167-7.167v-77.728C602.941,506.113,599.732,502.905,595.774,502.905z"/>
	</g>
	<g>

			<linearGradient id="SVGID_00000028294770816736128860000013709707088581630866_" gradientUnits="userSpaceOnUse" x1="655.8972" y1="-31.7915" x2="-406.0122" y2="1035.7075">
			<stop  offset="0" style="stop-color:#53D8FF"/>
			<stop  offset="1" style="stop-color:#3840F7"/>
		</linearGradient>
		<path style="fill:url(#SVGID_00000028294770816736128860000013709707088581630866_);" d="M90.295,669.656
			c-0.772,0-1.397-0.625-1.397-1.397V405.317c0-0.772,0.625-1.397,1.397-1.397c0.772,0,1.397,0.625,1.397,1.397v262.942
			C91.692,669.031,91.067,669.656,90.295,669.656z"/>

			<linearGradient id="SVGID_00000127746221828325743130000000014456096916984234_" gradientUnits="userSpaceOnUse" x1="651.8469" y1="-32.5066" x2="-406.9434" y2="1031.8569">
			<stop  offset="0" style="stop-color:#53D8FF"/>
			<stop  offset="1" style="stop-color:#3840F7"/>
		</linearGradient>
		<path style="fill:url(#SVGID_00000127746221828325743130000000014456096916984234_);" d="M94.935,621.67h-9.28
			c-3.958,0-7.167-3.209-7.167-7.167V449.5c0-3.958,3.209-7.167,7.167-7.167h9.28c3.958,0,7.167,3.209,7.167,7.167v165.004
			C102.101,618.461,98.893,621.67,94.935,621.67z"/>

			<linearGradient id="SVGID_00000021825737914491867150000018202857373449172631_" gradientUnits="userSpaceOnUse" x1="604.0777" y1="-83.34" x2="-457.8332" y2="984.1606">
			<stop  offset="0" style="stop-color:#53D8FF"/>
			<stop  offset="1" style="stop-color:#3840F7"/>
		</linearGradient>
		<path style="fill:url(#SVGID_00000021825737914491867150000018202857373449172631_);" d="M133.055,482.823
			c-0.772,0-1.397-0.625-1.397-1.397V298.899c0-0.772,0.625-1.397,1.397-1.397s1.397,0.625,1.397,1.397v182.527
			C134.452,482.198,133.826,482.823,133.055,482.823z"/>

			<linearGradient id="SVGID_00000065784631017656122490000013867220891634187162_" gradientUnits="userSpaceOnUse" x1="600.4956" y1="-83.0617" x2="-457.0685" y2="980.0691">
			<stop  offset="0" style="stop-color:#53D8FF"/>
			<stop  offset="1" style="stop-color:#3840F7"/>
		</linearGradient>
		<path style="fill:url(#SVGID_00000065784631017656122490000013867220891634187162_);" d="M137.695,449.085h-9.28
			c-3.958,0-7.167-3.209-7.167-7.167V331.761c0-3.958,3.209-7.167,7.167-7.167h9.28c3.958,0,7.167,3.209,7.167,7.167v110.158
			C144.861,445.877,141.653,449.085,137.695,449.085z"/>

			<linearGradient id="SVGID_00000103974374881935987680000002466740288778819725_" gradientUnits="userSpaceOnUse" x1="584.1457" y1="-103.1666" x2="-477.761" y2="964.3297">
			<stop  offset="0" style="stop-color:#53D8FF"/>
			<stop  offset="1" style="stop-color:#3840F7"/>
		</linearGradient>
		<path style="fill:url(#SVGID_00000103974374881935987680000002466740288778819725_);" d="M175.814,401.376
			c-0.772,0-1.397-0.625-1.397-1.397v-185.33c0-0.772,0.625-1.397,1.397-1.397c0.772,0,1.397,0.625,1.397,1.397v185.33
			C177.212,400.751,176.586,401.376,175.814,401.376z"/>

			<linearGradient id="SVGID_00000149357367046674870070000005163824395448488853_" gradientUnits="userSpaceOnUse" x1="561.5854" y1="-119.3345" x2="-491.7596" y2="939.5551">
			<stop  offset="0" style="stop-color:#53D8FF"/>
			<stop  offset="1" style="stop-color:#3840F7"/>
		</linearGradient>
		<path style="fill:url(#SVGID_00000149357367046674870070000005163824395448488853_);" d="M180.455,296.194h-9.28
			c-3.958,0-7.167-3.209-7.167-7.167v-41.122c0-3.958,3.209-7.167,7.167-7.167h9.28c3.958,0,7.167,3.209,7.167,7.167v41.122
			C187.621,292.986,184.413,296.194,180.455,296.194z"/>

			<linearGradient id="SVGID_00000014618876439161053470000008398878105971857026_" gradientUnits="userSpaceOnUse" x1="631.5857" y1="-55.9758" x2="-430.3249" y2="1011.5244">
			<stop  offset="0" style="stop-color:#53D8FF"/>
			<stop  offset="1" style="stop-color:#3840F7"/>
		</linearGradient>
		<path style="fill:url(#SVGID_00000014618876439161053470000008398878105971857026_);" d="M218.575,429.214
			c-0.772,0-1.397-0.625-1.397-1.397V290.602c0-0.772,0.625-1.397,1.397-1.397c0.772,0,1.397,0.625,1.397,1.397v137.215
			C219.972,428.589,219.347,429.214,218.575,429.214z"/>

			<linearGradient id="SVGID_00000036227436893141113960000013247084042718558625_" gradientUnits="userSpaceOnUse" x1="628.1752" y1="-55.0451" x2="-428.159" y2="1006.8494">
			<stop  offset="0" style="stop-color:#53D8FF"/>
			<stop  offset="1" style="stop-color:#3840F7"/>
		</linearGradient>
		<path style="fill:url(#SVGID_00000036227436893141113960000013247084042718558625_);" d="M223.215,403.504h-9.28
			c-3.958,0-7.167-3.209-7.167-7.167v-79.253c0-3.958,3.209-7.167,7.167-7.167h9.28c3.958,0,7.167,3.209,7.167,7.167v79.253
			C230.382,400.296,227.173,403.504,223.215,403.504z"/>

			<linearGradient id="SVGID_00000155144721773654294170000009444264413870965377_" gradientUnits="userSpaceOnUse" x1="697.1136" y1="9.2092" x2="-364.7981" y2="1076.7104">
			<stop  offset="0" style="stop-color:#53D8FF"/>
			<stop  offset="1" style="stop-color:#3840F7"/>
		</linearGradient>
		<path style="fill:url(#SVGID_00000155144721773654294170000009444264413870965377_);" d="M261.335,520.478
			c-0.772,0-1.397-0.625-1.397-1.397V375.484c0-0.772,0.625-1.397,1.397-1.397c0.772,0,1.397,0.625,1.397,1.397v143.597
			C262.732,519.852,262.106,520.478,261.335,520.478z"/>

			<linearGradient id="SVGID_00000100347858924117501690000010744957883884697746_" gradientUnits="userSpaceOnUse" x1="693.6133" y1="10.1142" x2="-362.9364" y2="1072.2253">
			<stop  offset="0" style="stop-color:#53D8FF"/>
			<stop  offset="1" style="stop-color:#3840F7"/>
		</linearGradient>
		<path style="fill:url(#SVGID_00000100347858924117501690000010744957883884697746_);" d="M265.975,493.638h-9.28
			c-3.958,0-7.167-3.209-7.167-7.167v-83.605c0-3.958,3.209-7.167,7.167-7.167h9.28c3.958,0,7.167,3.209,7.167,7.167v83.605
			C273.142,490.429,269.933,493.638,265.975,493.638z"/>

			<linearGradient id="SVGID_00000080202983612885939560000010852380141303278250_" gradientUnits="userSpaceOnUse" x1="849.4768" y1="160.7738" x2="-212.4296" y2="1228.2699">
			<stop  offset="0" style="stop-color:#53D8FF"/>
			<stop  offset="1" style="stop-color:#3840F7"/>
		</linearGradient>
		<path style="fill:url(#SVGID_00000080202983612885939560000010852380141303278250_);" d="M603.38,492.118
			c-0.772,0-1.397-0.625-1.397-1.397V325.611c0-0.772,0.625-1.397,1.397-1.397c0.772,0,1.397,0.625,1.397,1.397v165.111
			C604.777,491.493,604.152,492.118,603.38,492.118z"/>

			<linearGradient id="SVGID_00000061452809065206841290000012989379518794772108_" gradientUnits="userSpaceOnUse" x1="846.8801" y1="160.3784" x2="-210.282" y2="1223.1052">
			<stop  offset="0" style="stop-color:#53D8FF"/>
			<stop  offset="1" style="stop-color:#3840F7"/>
		</linearGradient>
		<path style="fill:url(#SVGID_00000061452809065206841290000012989379518794772108_);" d="M608.02,461.466h-9.281
			c-3.958,0-7.167-3.209-7.167-7.167v-98.279c0-3.958,3.209-7.167,7.167-7.167h9.281c3.958,0,7.167,3.209,7.167,7.167v98.279
			C615.187,458.257,611.978,461.466,608.02,461.466z"/>

			<linearGradient id="SVGID_00000074436218286865527660000002032682465404321454_" gradientUnits="userSpaceOnUse" x1="917.4472" y1="228.3886" x2="-144.4659" y2="1295.8914">
			<stop  offset="0" style="stop-color:#53D8FF"/>
			<stop  offset="1" style="stop-color:#3840F7"/>
		</linearGradient>
		<path style="fill:url(#SVGID_00000074436218286865527660000002032682465404321454_);" d="M646.14,593.785
			c-0.772,0-1.397-0.625-1.397-1.397V409.86c0-0.772,0.625-1.397,1.397-1.397c0.772,0,1.397,0.625,1.397,1.397v182.528
			C647.537,593.16,646.912,593.785,646.14,593.785z"/>

			<linearGradient id="SVGID_00000088110025858997534900000001843773646011435933_" gradientUnits="userSpaceOnUse" x1="914.6823" y1="227.8454" x2="-142.8818" y2="1290.9763">
			<stop  offset="0" style="stop-color:#53D8FF"/>
			<stop  offset="1" style="stop-color:#3840F7"/>
		</linearGradient>
		<path style="fill:url(#SVGID_00000088110025858997534900000001843773646011435933_);" d="M650.78,560.047h-9.28
			c-3.958,0-7.167-3.209-7.167-7.167V442.722c0-3.958,3.209-7.167,7.167-7.167h9.28c3.958,0,7.167,3.209,7.167,7.167V552.88
			C657.947,556.838,654.738,560.047,650.78,560.047z"/>

			<linearGradient id="SVGID_00000123419018609145687020000007620315314854438560_" gradientUnits="userSpaceOnUse" x1="984.71" y1="295.2994" x2="-77.2008" y2="1362.7999">
			<stop  offset="0" style="stop-color:#53D8FF"/>
			<stop  offset="1" style="stop-color:#3840F7"/>
		</linearGradient>
		<path style="fill:url(#SVGID_00000123419018609145687020000007620315314854438560_);" d="M688.9,633.952
			c-0.772,0-1.397-0.625-1.397-1.397v-79.776c0-0.772,0.625-1.397,1.397-1.397c0.772,0,1.397,0.625,1.397,1.397v79.776
			C690.297,633.326,689.672,633.952,688.9,633.952z"/>

			<linearGradient id="SVGID_00000114043516508149720680000013952150600610354849_" gradientUnits="userSpaceOnUse" x1="972.1797" y1="291.1736" x2="-74.3306" y2="1343.1926">
			<stop  offset="0" style="stop-color:#53D8FF"/>
			<stop  offset="1" style="stop-color:#3840F7"/>
		</linearGradient>
		<path style="fill:url(#SVGID_00000114043516508149720680000013952150600610354849_);" d="M693.54,587.88h-9.28
			c-3.958,0-7.167-3.209-7.167-7.167v-9.538c0-3.958,3.209-7.167,7.167-7.167h9.28c3.958,0,7.167,3.209,7.167,7.167v9.538
			C700.707,584.671,697.498,587.88,693.54,587.88z"/>

			<linearGradient id="SVGID_00000068634959848989978670000006464492930921953174_" gradientUnits="userSpaceOnUse" x1="1029.7284" y1="340.0825" x2="-32.1822" y2="1407.5828">
			<stop  offset="0" style="stop-color:#53D8FF"/>
			<stop  offset="1" style="stop-color:#3840F7"/>
		</linearGradient>
		<path style="fill:url(#SVGID_00000068634959848989978670000006464492930921953174_);" d="M731.66,709.725
			c-0.772,0-1.397-0.625-1.397-1.397V571.112c0-0.772,0.625-1.397,1.397-1.397c0.772,0,1.397,0.625,1.397,1.397v137.215
			C733.057,709.099,732.432,709.725,731.66,709.725z"/>

			<linearGradient id="SVGID_00000133514602367688440320000012954292800957299899_" gradientUnits="userSpaceOnUse" x1="1026.9214" y1="340.4066" x2="-29.4124" y2="1402.3007">
			<stop  offset="0" style="stop-color:#53D8FF"/>
			<stop  offset="1" style="stop-color:#3840F7"/>
		</linearGradient>
		<path style="fill:url(#SVGID_00000133514602367688440320000012954292800957299899_);" d="M736.3,684.015h-9.28
			c-3.958,0-7.167-3.209-7.167-7.167v-79.253c0-3.958,3.209-7.167,7.167-7.167h9.28c3.958,0,7.167,3.209,7.167,7.167v79.253
			C743.467,680.806,740.258,684.015,736.3,684.015z"/>

			<linearGradient id="SVGID_00000151519520024591980660000013798926142595603098_" gradientUnits="userSpaceOnUse" x1="1003.8255" y1="314.3157" x2="-58.0819" y2="1381.8127">
			<stop  offset="0" style="stop-color:#53D8FF"/>
			<stop  offset="1" style="stop-color:#3840F7"/>
		</linearGradient>
		<path style="fill:url(#SVGID_00000151519520024591980660000013798926142595603098_);" d="M774.42,618.124
			c-0.772,0-1.397-0.625-1.397-1.397V473.13c0-0.772,0.625-1.397,1.397-1.397s1.397,0.625,1.397,1.397v143.597
			C775.818,617.499,775.192,618.124,774.42,618.124z"/>

			<linearGradient id="SVGID_00000049212736118208207500000005115240516031813008_" gradientUnits="userSpaceOnUse" x1="1001.367" y1="314.1728" x2="-55.1822" y2="1376.2834">
			<stop  offset="0" style="stop-color:#53D8FF"/>
			<stop  offset="1" style="stop-color:#3840F7"/>
		</linearGradient>
		<path style="fill:url(#SVGID_00000049212736118208207500000005115240516031813008_);" d="M779.06,591.284h-9.28
			c-3.958,0-7.167-3.209-7.167-7.167v-83.605c0-3.958,3.209-7.167,7.167-7.167h9.28c3.958,0,7.167,3.209,7.167,7.167v83.605
			C786.227,588.075,783.018,591.284,779.06,591.284z"/>

			<linearGradient id="SVGID_00000098926954910232399300000003045823588175197868_" gradientUnits="userSpaceOnUse" x1="741.7418" y1="53.6017" x2="-320.1671" y2="1121.1002">
			<stop  offset="0" style="stop-color:#53D8FF"/>
			<stop  offset="1" style="stop-color:#3840F7"/>
		</linearGradient>
		<path style="fill:url(#SVGID_00000098926954910232399300000003045823588175197868_);" d="M304.095,521.755
			c-0.772,0-1.397-0.625-1.397-1.397v-53.61c0-0.772,0.625-1.397,1.397-1.397c0.772,0,1.397,0.625,1.397,1.397v53.61
			C305.492,521.129,304.867,521.755,304.095,521.755z"/>

			<linearGradient id="SVGID_00000046306457618484917020000008737346175066881158_" gradientUnits="userSpaceOnUse" x1="738.3553" y1="65.0207" x2="-305.7804" y2="1114.6526">
			<stop  offset="0" style="stop-color:#53D8FF"/>
			<stop  offset="1" style="stop-color:#3840F7"/>
		</linearGradient>
		<path style="fill:url(#SVGID_00000046306457618484917020000008737346175066881158_);" d="M308.735,510.858h-9.28
			c-3.958,0-7.167-3.209-7.167-7.167v-4.249c0-3.958,3.209-7.167,7.167-7.167h9.28c3.958,0,7.167,3.209,7.167,7.167v4.249
			C315.902,507.65,312.693,510.858,308.735,510.858z"/>

			<linearGradient id="SVGID_00000046302939178582908790000006999385423120845481_" gradientUnits="userSpaceOnUse" x1="784.9321" y1="96.5675" x2="-276.9766" y2="1164.0658">
			<stop  offset="0" style="stop-color:#53D8FF"/>
			<stop  offset="1" style="stop-color:#3840F7"/>
		</linearGradient>
		<path style="fill:url(#SVGID_00000046302939178582908790000006999385423120845481_);" d="M346.855,585.576
			c-0.772,0-1.397-0.625-1.397-1.397v-94.455c0-0.772,0.625-1.397,1.397-1.397c0.772,0,1.397,0.625,1.397,1.397v94.455
			C348.252,584.95,347.627,585.576,346.855,585.576z"/>

			<linearGradient id="SVGID_00000012430120442491148590000003270777853770752437_" gradientUnits="userSpaceOnUse" x1="782.0444" y1="100.6754" x2="-271.4187" y2="1159.6837">
			<stop  offset="0" style="stop-color:#53D8FF"/>
			<stop  offset="1" style="stop-color:#3840F7"/>
		</linearGradient>
		<path style="fill:url(#SVGID_00000012430120442491148590000003270777853770752437_);" d="M350.423,567.442h-7.136
			c-3.958,0-7.167-3.209-7.167-7.167v-44.239c0-3.958,3.209-7.167,7.167-7.167h7.136c3.958,0,7.167,3.209,7.167,7.167v44.239
			C357.59,564.234,354.381,567.442,350.423,567.442z"/>

			<linearGradient id="SVGID_00000000930529791151905910000005960199533459456152_" gradientUnits="userSpaceOnUse" x1="756.6443" y1="68.4286" x2="-305.2659" y2="1135.9285">
			<stop  offset="0" style="stop-color:#53D8FF"/>
			<stop  offset="1" style="stop-color:#3840F7"/>
		</linearGradient>
		<path style="fill:url(#SVGID_00000000930529791151905910000005960199533459456152_);" d="M389.615,554.303
			c-0.772,0-1.397-0.625-1.397-1.397V321.874c0-0.772,0.625-1.397,1.397-1.397c0.772,0,1.397,0.625,1.397,1.397v231.031
			C391.012,553.677,390.387,554.303,389.615,554.303z"/>

			<linearGradient id="SVGID_00000121973122765786281830000008387107802460833969_" gradientUnits="userSpaceOnUse" x1="761.1642" y1="75.9659" x2="-296.4172" y2="1139.1141">
			<stop  offset="0" style="stop-color:#53D8FF"/>
			<stop  offset="1" style="stop-color:#3840F7"/>
		</linearGradient>
		<path style="fill:url(#SVGID_00000121973122765786281830000008387107802460833969_);" d="M394.255,511.971h-9.28
			c-3.958,0-7.167-3.209-7.167-7.167V394.138c0-3.958,3.209-7.167,7.167-7.167h9.28c3.958,0,7.167,3.209,7.167,7.167v110.666
			C401.422,508.762,398.213,511.971,394.255,511.971z"/>

			<linearGradient id="SVGID_00000104675723447251508180000002942440913185483184_" gradientUnits="userSpaceOnUse" x1="740.0043" y1="51.8751" x2="-321.9052" y2="1119.3741">
			<stop  offset="0" style="stop-color:#53D8FF"/>
			<stop  offset="1" style="stop-color:#3840F7"/>
		</linearGradient>
		<path style="fill:url(#SVGID_00000104675723447251508180000002942440913185483184_);" d="M432.375,433.043
			c-0.772,0-1.397-0.625-1.397-1.397V290.602c0-0.772,0.625-1.397,1.397-1.397c0.772,0,1.397,0.625,1.397,1.397v141.044
			C433.772,432.418,433.147,433.043,432.375,433.043z"/>

			<linearGradient id="SVGID_00000114058455832476086790000008033523654866697401_" gradientUnits="userSpaceOnUse" x1="732.3947" y1="47.9868" x2="-323.0424" y2="1108.9794">
			<stop  offset="0" style="stop-color:#53D8FF"/>
			<stop  offset="1" style="stop-color:#3840F7"/>
		</linearGradient>
		<path style="fill:url(#SVGID_00000114058455832476086790000008033523654866697401_);" d="M437.015,388.785h-9.28
			c-3.958,0-7.167-3.209-7.167-7.167v-64.066c0-3.958,3.209-7.167,7.167-7.167h9.28c3.958,0,7.167,3.209,7.167,7.167v64.066
			C444.182,385.577,440.973,388.785,437.015,388.785z"/>

			<linearGradient id="SVGID_00000180367227564118940870000000976732155837999241_" gradientUnits="userSpaceOnUse" x1="761.3373" y1="73.0956" x2="-300.572" y2="1140.5946">
			<stop  offset="0" style="stop-color:#53D8FF"/>
			<stop  offset="1" style="stop-color:#3840F7"/>
		</linearGradient>
		<path style="fill:url(#SVGID_00000180367227564118940870000000976732155837999241_);" d="M475.135,493.673
			c-0.772,0-1.397-0.625-1.397-1.397V229.334c0-0.772,0.625-1.397,1.397-1.397c0.772,0,1.397,0.625,1.397,1.397v262.942
			C476.532,493.048,475.907,493.673,475.135,493.673z"/>

			<linearGradient id="SVGID_00000152251994031105189220000015621135597122255749_" gradientUnits="userSpaceOnUse" x1="758.1093" y1="71.5544" x2="-300.681" y2="1135.9178">
			<stop  offset="0" style="stop-color:#53D8FF"/>
			<stop  offset="1" style="stop-color:#3840F7"/>
		</linearGradient>
		<path style="fill:url(#SVGID_00000152251994031105189220000015621135597122255749_);" d="M479.775,445.687h-9.28
			c-3.958,0-7.167-3.209-7.167-7.167V273.517c0-3.958,3.209-7.167,7.167-7.167h9.28c3.958,0,7.167,3.209,7.167,7.167V438.52
			C486.942,442.478,483.733,445.687,479.775,445.687z"/>

			<linearGradient id="SVGID_00000093146565657953356680000013696783327727737271_" gradientUnits="userSpaceOnUse" x1="727.4654" y1="39.4019" x2="-334.447" y2="1106.9039">
			<stop  offset="0" style="stop-color:#53D8FF"/>
			<stop  offset="1" style="stop-color:#3840F7"/>
		</linearGradient>
		<path style="fill:url(#SVGID_00000093146565657953356680000013696783327727737271_);" d="M517.895,308.592
			c-0.772,0-1.397-0.625-1.397-1.397v-114.24c0-0.772,0.625-1.397,1.397-1.397s1.397,0.625,1.397,1.397v114.24
			C519.292,307.967,518.667,308.592,517.895,308.592z"/>

			<linearGradient id="SVGID_00000036249511204013607630000012198909031787424430_" gradientUnits="userSpaceOnUse" x1="717.6918" y1="32.7877" x2="-336.0301" y2="1092.0562">
			<stop  offset="0" style="stop-color:#53D8FF"/>
			<stop  offset="1" style="stop-color:#3840F7"/>
		</linearGradient>
		<path style="fill:url(#SVGID_00000036249511204013607630000012198909031787424430_);" d="M522.376,263.15h-9.281
			c-3.958,0-7.167-3.209-7.167-7.167V211.61c0-3.958,3.209-7.167,7.167-7.167h9.281c3.958,0,7.167,3.209,7.167,7.167v44.373
			C529.542,259.941,526.334,263.15,522.376,263.15z"/>

			<linearGradient id="SVGID_00000115511943574320250730000002474215718416082819_" gradientUnits="userSpaceOnUse" x1="977.312" y1="287.9407" x2="-84.5997" y2="1355.442">
			<stop  offset="0" style="stop-color:#53D8FF"/>
			<stop  offset="1" style="stop-color:#3840F7"/>
		</linearGradient>
		<path style="fill:url(#SVGID_00000115511943574320250730000002474215718416082819_);" d="M818.805,520.478
			c-0.772,0-1.397-0.625-1.397-1.397V375.484c0-0.772,0.625-1.397,1.397-1.397c0.772,0,1.397,0.625,1.397,1.397v143.597
			C820.202,519.852,819.577,520.478,818.805,520.478z"/>

			<linearGradient id="SVGID_00000158738959632074068640000016640651609229276844_" gradientUnits="userSpaceOnUse" x1="975.2115" y1="287.4382" x2="-81.3376" y2="1349.5488">
			<stop  offset="0" style="stop-color:#53D8FF"/>
			<stop  offset="1" style="stop-color:#3840F7"/>
		</linearGradient>
		<path style="fill:url(#SVGID_00000158738959632074068640000016640651609229276844_);" d="M823.445,493.638h-9.28
			c-3.958,0-7.167-3.209-7.167-7.167v-83.605c0-3.958,3.209-7.167,7.167-7.167h9.28c3.958,0,7.167,3.209,7.167,7.167v83.605
			C830.612,490.429,827.403,493.638,823.445,493.638z"/>

			<linearGradient id="SVGID_00000176017354121258532430000011450269517171234184_" gradientUnits="userSpaceOnUse" x1="1021.9388" y1="332.334" x2="-39.9703" y2="1399.8328">
			<stop  offset="0" style="stop-color:#53D8FF"/>
			<stop  offset="1" style="stop-color:#3840F7"/>
		</linearGradient>
		<path style="fill:url(#SVGID_00000176017354121258532430000011450269517171234184_);" d="M861.565,521.755
			c-0.772,0-1.397-0.625-1.397-1.397v-53.61c0-0.772,0.625-1.397,1.397-1.397c0.772,0,1.397,0.625,1.397,1.397v53.61
			C862.962,521.129,862.337,521.755,861.565,521.755z"/>

			<linearGradient id="SVGID_00000141444902349266187590000008070104004840913550_" gradientUnits="userSpaceOnUse" x1="1023.1947" y1="339.0865" x2="-20.9406" y2="1388.7179">
			<stop  offset="0" style="stop-color:#53D8FF"/>
			<stop  offset="1" style="stop-color:#3840F7"/>
		</linearGradient>
		<path style="fill:url(#SVGID_00000141444902349266187590000008070104004840913550_);" d="M866.205,510.858h-9.281
			c-3.958,0-7.167-3.209-7.167-7.167v-4.249c0-3.958,3.209-7.167,7.167-7.167h9.281c3.958,0,7.167,3.209,7.167,7.167v4.249
			C873.372,507.65,870.163,510.858,866.205,510.858z"/>

			<linearGradient id="SVGID_00000117668640897136523930000006744983983333120185_" gradientUnits="userSpaceOnUse" x1="1065.1304" y1="375.2991" x2="3.2216" y2="1442.7974">
			<stop  offset="0" style="stop-color:#53D8FF"/>
			<stop  offset="1" style="stop-color:#3840F7"/>
		</linearGradient>
		<path style="fill:url(#SVGID_00000117668640897136523930000006744983983333120185_);" d="M904.325,585.576
			c-0.772,0-1.397-0.625-1.397-1.397v-94.455c0-0.772,0.625-1.397,1.397-1.397c0.772,0,1.397,0.625,1.397,1.397v94.455
			C905.722,584.95,905.097,585.576,904.325,585.576z"/>

			<linearGradient id="SVGID_00000016057912451490331090000005439311737035847326_" gradientUnits="userSpaceOnUse" x1="1064.449" y1="377.1888" x2="10.9854" y2="1436.1975">
			<stop  offset="0" style="stop-color:#53D8FF"/>
			<stop  offset="1" style="stop-color:#3840F7"/>
		</linearGradient>
		<path style="fill:url(#SVGID_00000016057912451490331090000005439311737035847326_);" d="M907.893,567.442h-7.136
			c-3.958,0-7.167-3.209-7.167-7.167v-44.239c0-3.958,3.209-7.167,7.167-7.167h7.136c3.958,0,7.167,3.209,7.167,7.167v44.239
			C915.06,564.234,911.851,567.442,907.893,567.442z"/>

			<linearGradient id="SVGID_00000116931605591718140630000006831016394731868071_" gradientUnits="userSpaceOnUse" x1="1036.8427" y1="347.1598" x2="-25.0676" y2="1414.6597">
			<stop  offset="0" style="stop-color:#53D8FF"/>
			<stop  offset="1" style="stop-color:#3840F7"/>
		</linearGradient>
		<path style="fill:url(#SVGID_00000116931605591718140630000006831016394731868071_);" d="M947.085,554.303
			c-0.772,0-1.397-0.625-1.397-1.397V321.874c0-0.772,0.625-1.397,1.397-1.397s1.397,0.625,1.397,1.397v231.031
			C948.482,553.677,947.857,554.303,947.085,554.303z"/>

			<linearGradient id="SVGID_00000100365154224154040040000009316642485043443338_" gradientUnits="userSpaceOnUse" x1="1042.4926" y1="353.5612" x2="-15.0888" y2="1416.7094">
			<stop  offset="0" style="stop-color:#53D8FF"/>
			<stop  offset="1" style="stop-color:#3840F7"/>
		</linearGradient>
		<path style="fill:url(#SVGID_00000100365154224154040040000009316642485043443338_);" d="M951.725,511.971h-9.28
			c-3.958,0-7.167-3.209-7.167-7.167V394.138c0-3.958,3.209-7.167,7.167-7.167h9.28c3.958,0,7.167,3.209,7.167,7.167v110.666
			C958.892,508.762,955.683,511.971,951.725,511.971z"/>

			<linearGradient id="SVGID_00000130640158360060657530000014448773878826514071_" gradientUnits="userSpaceOnUse" x1="1020.2022" y1="330.6065" x2="-41.7073" y2="1398.1057">
			<stop  offset="0" style="stop-color:#53D8FF"/>
			<stop  offset="1" style="stop-color:#3840F7"/>
		</linearGradient>
		<path style="fill:url(#SVGID_00000130640158360060657530000014448773878826514071_);" d="M989.845,433.043
			c-0.772,0-1.397-0.625-1.397-1.397V290.602c0-0.772,0.625-1.397,1.397-1.397c0.772,0,1.397,0.625,1.397,1.397v141.044
			C991.242,432.418,990.617,433.043,989.845,433.043z"/>

			<linearGradient id="SVGID_00000101080325498307335980000014327715210474659207_" gradientUnits="userSpaceOnUse" x1="1014.2835" y1="325.0186" x2="-41.1538" y2="1386.0115">
			<stop  offset="0" style="stop-color:#53D8FF"/>
			<stop  offset="1" style="stop-color:#3840F7"/>
		</linearGradient>
		<path style="fill:url(#SVGID_00000101080325498307335980000014327715210474659207_);" d="M994.485,388.785h-9.281
			c-3.958,0-7.167-3.209-7.167-7.167v-64.066c0-3.958,3.209-7.167,7.167-7.167h9.281c3.958,0,7.167,3.209,7.167,7.167v64.066
			C1001.652,385.577,998.443,388.785,994.485,388.785z"/>

			<linearGradient id="SVGID_00000147194098874437559850000008303724787951504270_" gradientUnits="userSpaceOnUse" x1="1041.5352" y1="351.8276" x2="-20.3742" y2="1419.3267">
			<stop  offset="0" style="stop-color:#53D8FF"/>
			<stop  offset="1" style="stop-color:#3840F7"/>
		</linearGradient>
		<path style="fill:url(#SVGID_00000147194098874437559850000008303724787951504270_);" d="M1032.605,493.673
			c-0.772,0-1.397-0.625-1.397-1.397V229.334c0-0.772,0.625-1.397,1.397-1.397s1.397,0.625,1.397,1.397v262.942
			C1034.002,493.048,1033.377,493.673,1032.605,493.673z"/>

			<linearGradient id="SVGID_00000006679949413576200920000007582655408000519869_" gradientUnits="userSpaceOnUse" x1="1039.1227" y1="349.4663" x2="-19.6676" y2="1413.8298">
			<stop  offset="0" style="stop-color:#53D8FF"/>
			<stop  offset="1" style="stop-color:#3840F7"/>
		</linearGradient>
		<path style="fill:url(#SVGID_00000006679949413576200920000007582655408000519869_);" d="M1037.245,445.687h-9.28
			c-3.958,0-7.167-3.209-7.167-7.167V273.517c0-3.958,3.209-7.167,7.167-7.167h9.28c3.958,0,7.167,3.209,7.167,7.167V438.52
			C1044.412,442.478,1041.203,445.687,1037.245,445.687z"/>

			<linearGradient id="SVGID_00000057833030406969558370000016991223963588303013_" gradientUnits="userSpaceOnUse" x1="1007.6631" y1="318.1336" x2="-54.2496" y2="1385.636">
			<stop  offset="0" style="stop-color:#53D8FF"/>
			<stop  offset="1" style="stop-color:#3840F7"/>
		</linearGradient>
		<path style="fill:url(#SVGID_00000057833030406969558370000016991223963588303013_);" d="M1075.365,308.592
			c-0.772,0-1.397-0.625-1.397-1.397v-114.24c0-0.772,0.625-1.397,1.397-1.397c0.772,0,1.397,0.625,1.397,1.397v114.24
			C1076.762,307.967,1076.137,308.592,1075.365,308.592z"/>

			<linearGradient id="SVGID_00000080928124384094195900000008318033134477517987_" gradientUnits="userSpaceOnUse" x1="1000.028" y1="309.3699" x2="-53.6939" y2="1368.6384">
			<stop  offset="0" style="stop-color:#53D8FF"/>
			<stop  offset="1" style="stop-color:#3840F7"/>
		</linearGradient>
		<path style="fill:url(#SVGID_00000080928124384094195900000008318033134477517987_);" d="M1079.846,263.15h-9.281
			c-3.958,0-7.167-3.209-7.167-7.167V211.61c0-3.958,3.209-7.167,7.167-7.167h9.281c3.958,0,7.167,3.209,7.167,7.167v44.373
			C1087.012,259.941,1083.804,263.15,1079.846,263.15z"/>

			<linearGradient id="SVGID_00000021087790191493890390000001792320609996733598_" gradientUnits="userSpaceOnUse" x1="773.4355" y1="85.1312" x2="-288.4719" y2="1152.6283">
			<stop  offset="0" style="stop-color:#53D8FF"/>
			<stop  offset="1" style="stop-color:#3840F7"/>
		</linearGradient>
		<path style="fill:url(#SVGID_00000021087790191493890390000001792320609996733598_);" d="M560.655,386.587
			c-0.772,0-1.397-0.625-1.397-1.397V212.874c0-0.772,0.625-1.397,1.397-1.397c0.772,0,1.397,0.625,1.397,1.397V385.19
			C562.052,385.962,561.427,386.587,560.655,386.587z"/>

			<linearGradient id="SVGID_00000015331591781830568000000018397537613443873980_" gradientUnits="userSpaceOnUse" x1="770.9572" y1="84.4859" x2="-286.3804" y2="1147.3892">
			<stop  offset="0" style="stop-color:#53D8FF"/>
			<stop  offset="1" style="stop-color:#3840F7"/>
		</linearGradient>
		<path style="fill:url(#SVGID_00000015331591781830568000000018397537613443873980_);" d="M565.295,354.658h-9.28
			c-3.958,0-7.167-3.209-7.167-7.167V244.298c0-3.958,3.209-7.167,7.167-7.167h9.28c3.958,0,7.167,3.209,7.167,7.167v103.193
			C572.462,351.45,569.253,354.658,565.295,354.658z"/>
	</g>
	<g>

			<linearGradient id="SVGID_00000106830666415905160250000018350698093162356616_" gradientUnits="userSpaceOnUse" x1="876.5345" y1="28.8763" x2="745.7723" y2="540.0389">
			<stop  offset="0" style="stop-color:#CB236D"/>
			<stop  offset="1" style="stop-color:#4C246D"/>
		</linearGradient>
		<path style="fill:url(#SVGID_00000106830666415905160250000018350698093162356616_);" d="M934.522,189.926L841.269,61.586
			c-2.506-3.448-10.301-3.448-12.806,0l-93.254,128.341c-2.128,2.928,1.278,6.259,6.403,6.259h30.234
			c3.887,0,7.039,1.98,7.039,4.423v137.968c0,2.443,3.152,4.423,7.038,4.423h97.883c3.887,0,7.039-1.98,7.039-4.423V200.608
			c0-2.443,3.152-4.423,7.038-4.423h30.236C933.244,196.185,936.651,192.855,934.522,189.926z"/>
		<g style="opacity:0.78;">
			<path style="fill:#FFFFFF;" d="M788.624,301.993c0-1.326,0.992-2.441,2.311-2.583c2.207-0.238,5.13-0.394,7.923-0.394
				c4.831,0,7.792,0.467,10.337,1.973c2.441,1.299,4.207,3.689,4.207,6.857c0,3.116-1.818,6.026-5.766,7.48v0.104
				c4,1.091,6.961,4.104,6.961,8.623c0,3.169-1.455,5.662-3.636,7.428c-2.545,2.026-6.804,3.168-13.765,3.168
				c-2.492,0-4.581-0.106-6.224-0.251c-1.334-0.117-2.347-1.247-2.347-2.586V301.993z M796.468,310.547
				c0,1.435,1.163,2.598,2.597,2.598l0,0c4.155,0,6.389-1.714,6.389-4.311c0-2.649-2.027-4.051-5.611-4.051
				c-0.309,0-0.594,0.003-0.858,0.009c-1.406,0.033-2.518,1.191-2.518,2.597V310.547z M796.468,326.183
				c0,1.433,1.15,2.596,2.584,2.598c0.154,0,0.315,0,0.481,0c3.584,0,6.753-1.35,6.753-5.039c0-3.532-3.169-4.935-7.116-4.935
				h-0.104c-1.435,0-2.597,1.163-2.597,2.598V326.183z"/>
			<path style="fill:#FFFFFF;" d="M825.297,299.276c1.435,0,2.598,1.163,2.598,2.598v17.557c0,6.026,2.286,9.091,6.338,9.091
				c4.155,0,6.441-2.909,6.441-9.091v-17.557c0-1.434,1.163-2.598,2.597-2.598h2.701c1.435,0,2.598,1.163,2.598,2.598v17.038
				c0,10.805-5.455,15.948-14.597,15.948c-8.831,0-14.025-4.883-14.025-16.051v-16.934c0-1.434,1.163-2.598,2.598-2.598H825.297z"/>
			<path style="fill:#FFFFFF;" d="M863.529,331.689v-11.088c0-0.428-0.106-0.849-0.307-1.226l-8.711-16.276
				c-0.926-1.73,0.328-3.823,2.29-3.823h2.986c1.041,0,1.982,0.622,2.39,1.58l2.911,6.835c1.091,2.545,1.818,4.415,2.701,6.701
				h0.104c0.779-2.182,1.61-4.207,2.649-6.701l2.864-6.823c0.405-0.965,1.349-1.592,2.395-1.592h2.706
				c1.989,0,3.24,2.144,2.262,3.875l-9.007,15.944c-0.22,0.39-0.336,0.83-0.336,1.278v11.316c0,1.435-1.163,2.598-2.598,2.598
				h-2.701C864.692,334.287,863.529,333.124,863.529,331.689z"/>
		</g>
	</g>
	<g>

			<linearGradient id="SVGID_00000012436183289201215480000007994150392479295382_" gradientUnits="userSpaceOnUse" x1="7047.4775" y1="610.2968" x2="7103.6104" y2="610.2968" gradientTransform="matrix(-1 0 0 1 7991.397 0)">
			<stop  offset="0" style="stop-color:#9CFFFB"/>
			<stop  offset="1" style="stop-color:#9BFFFA"/>
		</linearGradient>
		<path style="fill:url(#SVGID_00000012436183289201215480000007994150392479295382_);" d="M890.988,744.794
			c1.532,0,2.885-0.986,3.149-2.381l49.737-263.283c0.294-1.556-0.88-3.029-2.621-3.291c-1.742-0.26-3.391,0.786-3.685,2.341
			l-49.737,263.283c-0.294,1.555,0.879,3.029,2.621,3.291C890.633,744.781,890.812,744.794,890.988,744.794z"/>

			<linearGradient id="SVGID_00000145032647321355855140000010336263627555470987_" gradientUnits="userSpaceOnUse" x1="6929.4141" y1="612.0085" x2="6994.4414" y2="612.0085" gradientTransform="matrix(-1 0 0 1 7991.397 0)">
			<stop  offset="0" style="stop-color:#9CFFFB"/>
			<stop  offset="1" style="stop-color:#9BFFFA"/>
		</linearGradient>
		<path style="fill:url(#SVGID_00000145032647321355855140000010336263627555470987_);" d="M1058.782,744.795
			c0.209,0,0.422-0.019,0.635-0.058c1.731-0.311,2.852-1.818,2.503-3.364l-58.631-259.858c-0.349-1.546-2.032-2.555-3.766-2.235
			c-1.731,0.311-2.852,1.818-2.503,3.364l58.631,259.858C1055.957,743.858,1057.291,744.795,1058.782,744.795z"/>

			<linearGradient id="SVGID_00000156580041360683159400000009621798144623195016_" gradientUnits="userSpaceOnUse" x1="6974.2666" y1="541.3389" x2="7065.6553" y2="541.3389" gradientTransform="matrix(-1 0 0 1 7991.397 0)">
			<stop  offset="0" style="stop-color:#9CFFFB"/>
			<stop  offset="1" style="stop-color:#9BFFFA"/>
		</linearGradient>
		<path style="fill:url(#SVGID_00000156580041360683159400000009621798144623195016_);" d="M928.939,544.195h84.994
			c1.766,0,3.197-1.279,3.197-2.856s-1.432-2.856-3.197-2.856h-84.994c-1.766,0-3.197,1.278-3.197,2.856
			S927.173,544.195,928.939,544.195z"/>

			<linearGradient id="SVGID_00000124881015960574765820000006724201082950974877_" gradientUnits="userSpaceOnUse" x1="6975.9258" y1="541.3389" x2="7063.9985" y2="541.3389" gradientTransform="matrix(-1 0 0 1 7991.397 0)">
			<stop  offset="0" style="stop-color:#9CFFFB"/>
			<stop  offset="1" style="stop-color:#9BFFFA"/>
		</linearGradient>
		<path style="fill:url(#SVGID_00000124881015960574765820000006724201082950974877_);" d="M930.48,544.195h81.91
			c1.702,0,3.081-1.279,3.081-2.856s-1.38-2.856-3.081-2.856h-81.91c-1.702,0-3.081,1.278-3.081,2.856
			S928.778,544.195,930.48,544.195z"/>

			<linearGradient id="SVGID_00000126324055959431053540000001510382856363144368_" gradientUnits="userSpaceOnUse" x1="6974.2666" y1="588.944" x2="7065.6553" y2="588.944" gradientTransform="matrix(-1 0 0 1 7991.397 0)">
			<stop  offset="0" style="stop-color:#9CFFFB"/>
			<stop  offset="1" style="stop-color:#9BFFFA"/>
		</linearGradient>
		<path style="fill:url(#SVGID_00000126324055959431053540000001510382856363144368_);" d="M928.939,591.8h84.994
			c1.766,0,3.197-1.279,3.197-2.856c0-1.578-1.432-2.856-3.197-2.856h-84.994c-1.766,0-3.197,1.279-3.197,2.856
			C925.742,590.522,927.173,591.8,928.939,591.8z"/>

			<linearGradient id="SVGID_00000154387066008887942810000014990033301176288188_" gradientUnits="userSpaceOnUse" x1="6963.9341" y1="588.944" x2="7073.373" y2="588.944" gradientTransform="matrix(-1 0 0 1 7991.397 0)">
			<stop  offset="0" style="stop-color:#9CFFFB"/>
			<stop  offset="1" style="stop-color:#9BFFFA"/>
		</linearGradient>
		<path style="fill:url(#SVGID_00000154387066008887942810000014990033301176288188_);" d="M921.222,591.8h103.044
			c1.766,0,3.198-1.279,3.198-2.856c0-1.578-1.432-2.856-3.198-2.856H921.222c-1.766,0-3.197,1.279-3.197,2.856
			C918.024,590.522,919.456,591.8,921.222,591.8z"/>

			<linearGradient id="SVGID_00000150785373261420898650000007186286553248587951_" gradientUnits="userSpaceOnUse" x1="6974.2666" y1="636.5492" x2="7065.6553" y2="636.5492" gradientTransform="matrix(-1 0 0 1 7991.397 0)">
			<stop  offset="0" style="stop-color:#9CFFFB"/>
			<stop  offset="1" style="stop-color:#9BFFFA"/>
		</linearGradient>
		<path style="fill:url(#SVGID_00000150785373261420898650000007186286553248587951_);" d="M928.939,639.406h84.994
			c1.766,0,3.197-1.278,3.197-2.856c0-1.578-1.432-2.856-3.197-2.856h-84.994c-1.766,0-3.197,1.279-3.197,2.856
			C925.742,638.127,927.173,639.406,928.939,639.406z"/>

			<linearGradient id="SVGID_00000046327829259325509840000011836470414398109830_" gradientUnits="userSpaceOnUse" x1="6953.4775" y1="636.5492" x2="7083.2153" y2="636.5492" gradientTransform="matrix(-1 0 0 1 7991.397 0)">
			<stop  offset="0" style="stop-color:#9CFFFB"/>
			<stop  offset="1" style="stop-color:#9BFFFA"/>
		</linearGradient>
		<path style="fill:url(#SVGID_00000046327829259325509840000011836470414398109830_);" d="M911.379,639.406h123.343
			c1.766,0,3.197-1.278,3.197-2.856c0-1.578-1.432-2.856-3.197-2.856H911.379c-1.766,0-3.197,1.279-3.197,2.856
			C908.182,638.127,909.614,639.406,911.379,639.406z"/>

			<linearGradient id="SVGID_00000070118745973019788950000016917751810783208357_" gradientUnits="userSpaceOnUse" x1="6943.562" y1="684.1545" x2="7065.6553" y2="684.1545" gradientTransform="matrix(-1 0 0 1 7991.397 0)">
			<stop  offset="0" style="stop-color:#9CFFFB"/>
			<stop  offset="1" style="stop-color:#9BFFFA"/>
		</linearGradient>
		<path style="fill:url(#SVGID_00000070118745973019788950000016917751810783208357_);" d="M928.939,687.011h115.699
			c1.766,0,3.197-1.279,3.197-2.856c0-1.578-1.432-2.856-3.197-2.856H928.939c-1.766,0-3.197,1.278-3.197,2.856
			C925.742,685.732,927.173,687.011,928.939,687.011z"/>

			<linearGradient id="SVGID_00000098922320975379218050000000576666545738661566_" gradientUnits="userSpaceOnUse" x1="6943.562" y1="684.1545" x2="7091.1768" y2="684.1545" gradientTransform="matrix(-1 0 0 1 7991.397 0)">
			<stop  offset="0" style="stop-color:#9CFFFB"/>
			<stop  offset="1" style="stop-color:#9BFFFA"/>
		</linearGradient>
		<path style="fill:url(#SVGID_00000098922320975379218050000000576666545738661566_);" d="M903.418,687.011h141.22
			c1.766,0,3.197-1.279,3.197-2.856c0-1.578-1.432-2.856-3.197-2.856h-141.22c-1.766,0-3.197,1.278-3.197,2.856
			C900.221,685.732,901.652,687.011,903.418,687.011z"/>
	</g>
	<g>

			<linearGradient id="SVGID_00000181087435424876952090000003074174076039850682_" gradientUnits="userSpaceOnUse" x1="5283.3945" y1="533.771" x2="5302.061" y2="533.771" gradientTransform="matrix(-1 0 0 1 6291.397 0)">
			<stop  offset="0" style="stop-color:#2B3582"/>
			<stop  offset="1" style="stop-color:#150E42"/>
		</linearGradient>
		<path style="fill:url(#SVGID_00000181087435424876952090000003074174076039850682_);" d="M1005.404,527.193
			c0,0,2.074,3.27,2.596,12.424c0.049,0.853-0.627,1.58-1.481,1.58h-16.223c-0.653,0-1.119-0.64-0.91-1.258
			c0.951-2.813,3.825-9.673,10.238-13.593L1005.404,527.193z"/>

			<linearGradient id="SVGID_00000056399202664002758190000011225915896477757372_" gradientUnits="userSpaceOnUse" x1="5285.2881" y1="525.0968" x2="5292.8589" y2="525.0968" gradientTransform="matrix(-1 0 0 1 6291.397 0)">
			<stop  offset="0" style="stop-color:#F9B776"/>
			<stop  offset="1" style="stop-color:#F47960"/>
		</linearGradient>
		<path style="fill:url(#SVGID_00000056399202664002758190000011225915896477757372_);" d="M1006.109,520.99l-0.917,7.694
			c-0.079,0.664-0.599,1.195-1.263,1.272c-0.887,0.102-2.177,0.174-3.43-0.032c-1.139-0.188-1.959-1.203-1.959-2.357v-7.428
			L1006.109,520.99z"/>

			<linearGradient id="SVGID_00000060746824969839126020000017718127996881350545_" gradientUnits="userSpaceOnUse" x1="5323.0913" y1="533.4725" x2="5352.3799" y2="533.4725" gradientTransform="matrix(-1 0 0 1 6291.397 0)">
			<stop  offset="0" style="stop-color:#2B3582"/>
			<stop  offset="1" style="stop-color:#150E42"/>
		</linearGradient>
		<path style="fill:url(#SVGID_00000060746824969839126020000017718127996881350545_);" d="M965.266,526.345
			c0,0,3.105,4.826,3.039,11.451c-0.016,1.56-1.322,2.803-2.882,2.803h-25.195c-1.18,0-1.659-1.516-0.693-2.194
			c4.768-3.348,14.139-9.602,20.916-12.061H965.266z"/>

			<linearGradient id="SVGID_00000179611720460851000950000008195208689455854729_" gradientUnits="userSpaceOnUse" x1="5323.5361" y1="521.7352" x2="5331.0649" y2="521.7352" gradientTransform="matrix(-1 0 0 1 6291.397 0)">
			<stop  offset="0" style="stop-color:#F9B776"/>
			<stop  offset="1" style="stop-color:#F47960"/>
		</linearGradient>
		<path style="fill:url(#SVGID_00000179611720460851000950000008195208689455854729_);" d="M967.861,518.036l-1.957,9.502
			c-0.219,1.063-1.259,1.777-2.318,1.541c-0.644-0.144-1.403-0.419-2.215-0.926c-0.771-0.482-1.162-1.4-1.005-2.296l2.024-11.511
			L967.861,518.036z"/>

			<linearGradient id="SVGID_00000137847338295293848200000000410352282544769945_" gradientUnits="userSpaceOnUse" x1="5280.5845" y1="454.9528" x2="5331.9106" y2="454.9528" gradientTransform="matrix(-1 0 0 1 6291.397 0)">
			<stop  offset="0" style="stop-color:#2B3582"/>
			<stop  offset="1" style="stop-color:#150E42"/>
		</linearGradient>
		<path style="fill:url(#SVGID_00000137847338295293848200000000410352282544769945_);" d="M1002.514,385.926
			c0,0,6.805,5.999,8.086,13.217c1.281,7.218-3.628,124.535-3.628,124.535s-6.805,1.132-10.312-0.993c0,0-4.16-76.138-7.323-93.732
			c0,0-16.585,78.869-21.18,93.12c0,0-6.556,0.797-8.67-0.45c0,0,4.344-102.236,9.803-120.412L1002.514,385.926z"/>
		<path style="fill:#666694;" d="M989.534,426.49c-0.063,0-0.127-0.008-0.19-0.024c-0.401-0.104-0.641-0.514-0.537-0.914
			l2.891-11.088c0.047-0.183,0.162-0.34,0.321-0.442l6.245-4.006c0.347-0.224,0.812-0.122,1.036,0.227
			c0.224,0.349,0.122,0.813-0.227,1.036l-5.997,3.848l-2.817,10.804C990.171,426.266,989.867,426.49,989.534,426.49z"/>

			<linearGradient id="SVGID_00000068659287103098253220000004694880080609568159_" gradientUnits="userSpaceOnUse" x1="909.4109" y1="329.3424" x2="971.4944" y2="329.3424">
			<stop  offset="0" style="stop-color:#C32B78"/>
			<stop  offset="1" style="stop-color:#593092"/>
		</linearGradient>
		<path style="fill:url(#SVGID_00000068659287103098253220000004694880080609568159_);" d="M935.361,318.138
			c28.647-2.378,36.134,3.55,36.134,3.55l-13.766,21.733c0,0-28.148-0.556-48.317-16.102c3.775-4.065,6.396-8.558,8.078-12.056
			C922.689,317.425,928.679,318.692,935.361,318.138z"/>

			<linearGradient id="SVGID_00000155833318423344193950000004243788891259853500_" gradientUnits="userSpaceOnUse" x1="5373.9087" y1="301.283" x2="5401.8896" y2="301.283" gradientTransform="matrix(-1 0 0 1 6291.397 0)">
			<stop  offset="0" style="stop-color:#F9B776"/>
			<stop  offset="1" style="stop-color:#F47960"/>
		</linearGradient>
		<path style="fill:url(#SVGID_00000155833318423344193950000004243788891259853500_);" d="M890.501,276.089
			c0.039-0.918,1.283-1.168,1.673-0.336l3.655,7.8c0.706,1.507,0.933,3.195,0.648,4.835l-1.282,4.54
			c-0.384,2.214,0.195,4.482,1.598,6.237c3.359,4.199,10.512,11.868,20.695,16.099c-1.681,3.498-4.303,7.991-8.078,12.056
			c-7.401-5.704-13.728-13.423-17.195-23.877c-1.661-0.51-2.771-2.074-2.705-3.81L890.501,276.089z"/>

			<linearGradient id="SVGID_00000078740753845514495570000000570482753706735263_" gradientUnits="userSpaceOnUse" x1="925.0281" y1="326.4206" x2="986.5248" y2="407.4163">
			<stop  offset="0" style="stop-color:#C32B78"/>
			<stop  offset="1" style="stop-color:#593092"/>
		</linearGradient>
		<path style="fill:url(#SVGID_00000078740753845514495570000000570482753706735263_);" d="M925.931,330.738
			c10.085-10.867,29.294-15.776,40.415-17.793c4.872-0.884,9.675,1.828,11.401,6.469c5.005,13.454,18.617,48.456,21.255,54.472
			c2.165,4.935,4.425,9.755,5.861,12.769c0.858,1.8,0.108,3.955-1.688,4.821c-9.357,4.51-26.194,9.613-33.02,11.604
			c-1.502,0.438-2.997-0.689-2.997-2.253c0-1.326-0.36-2.628-1.043-3.765l-25.851-43.079
			c-16.113,17.866-30.223,19.499-41.063,15.589c1.823-5.633,3.015-11.276,3.587-16.93
			C918.803,349.896,925.931,330.738,925.931,330.738z"/>

			<linearGradient id="SVGID_00000010286790788352315900000007321144196608746926_" gradientUnits="userSpaceOnUse" x1="5437.2661" y1="307.3833" x2="5376.8076" y2="382.5994" gradientTransform="matrix(-1 0 0 1 6291.397 0)">
			<stop  offset="0" style="stop-color:#F9B776"/>
			<stop  offset="1" style="stop-color:#F47960"/>
		</linearGradient>
		<path style="fill:url(#SVGID_00000010286790788352315900000007321144196608746926_);" d="M876.321,349.641l2.89-3.853
			c9.356,6.426,17.176,7.949,23.579,6.852c-0.572,5.654-1.765,11.297-3.587,16.93C884.922,364.418,876.321,349.641,876.321,349.641z
			"/>

			<linearGradient id="SVGID_00000141433647697336188390000000302111192538813322_" gradientUnits="userSpaceOnUse" x1="5448.729" y1="316.5968" x2="5388.2705" y2="391.813" gradientTransform="matrix(-1 0 0 1 6291.397 0)">
			<stop  offset="0" style="stop-color:#F9B776"/>
			<stop  offset="1" style="stop-color:#F47960"/>
		</linearGradient>
		<path style="fill:url(#SVGID_00000141433647697336188390000000302111192538813322_);" d="M878.359,349.711l-16.281,0.635
			l-14.99-8.372c2.152-1.349,14.32,1.408,14.32,1.408s12.72-1.924,16.163-1.928c2.859-0.004,2.451,4.108,2.23,5.502
			c-0.045,0.284-0.082,0.455-0.082,0.455L878.359,349.711z"/>

			<linearGradient id="SVGID_00000107557718599497878880000003374782744921641628_" gradientUnits="userSpaceOnUse" x1="5369.25" y1="261.9264" x2="5310.6958" y2="369.5144" gradientTransform="matrix(-1 0 0 1 6291.397 0)">
			<stop  offset="0" style="stop-color:#F9B776"/>
			<stop  offset="1" style="stop-color:#F47960"/>
		</linearGradient>
		<path style="fill:url(#SVGID_00000107557718599497878880000003374782744921641628_);" d="M951.049,292.988l8.59,20.962
			c0,0-9.87,6.832-17.811,6.182l-4.287-18.849L951.049,292.988z"/>
		<g>

				<linearGradient id="SVGID_00000162316920471625347170000016003825380239899324_" gradientUnits="userSpaceOnUse" x1="3969.3044" y1="6106.9341" x2="3943.4268" y2="6141.168" gradientTransform="matrix(-0.817 -0.5767 -0.5767 0.817 7705.3916 -2418.519)">
				<stop  offset="0" style="stop-color:#F9B776"/>
				<stop  offset="1" style="stop-color:#F47960"/>
			</linearGradient>
			<path style="fill:url(#SVGID_00000162316920471625347170000016003825380239899324_);" d="M936.538,278.697
				c-0.197,0.279-6.215,22.019-6.215,22.019l12.486,3.172l8.765-19.758C951.575,284.131,939.832,274.031,936.538,278.697z"/>

				<linearGradient id="SVGID_00000060712523070644395860000008626572539020201092_" gradientUnits="userSpaceOnUse" x1="935.053" y1="279.1694" x2="966.509" y2="337.5877">
				<stop  offset="0" style="stop-color:#2B3582"/>
				<stop  offset="1" style="stop-color:#150E42"/>
			</linearGradient>
			<path style="fill:url(#SVGID_00000060712523070644395860000008626572539020201092_);" d="M946.873,287.133l-3.8,10.762
				c-0.049,0.138-0.114,0.266-0.198,0.385c-0.516,0.733-2.475,3.123-4.798,0.97c-2.108-1.954-4.061-3.706-5.865-4.023
				c-0.81-0.143-1.594,0.351-1.814,1.144c-0.546,1.975-1.695,6.449-2.1,10.489c-0.082,0.82,0.484,1.561,1.293,1.714
				c2.439,0.463,7.609,1.296,11.926,0.992c0.585-0.041,1.1-0.392,1.344-0.925c1.19-2.6,4.835-10.487,6.19-12.528
				c1.272-1.915,4.392-1.862,5.7-1.746c0.429,0.038,0.851-0.1,1.174-0.384c1.144-1.003,3.323-3.564,0.259-6.63
				c-0.641-0.642-0.624-1.677,0.037-2.298c1.316-1.237,2.723-3.431,0.531-6.153c-2.228-2.766-5.169-2.326-6.972-1.668
				c-0.729,0.266-1.524-0.042-1.92-0.709c-0.226-0.38-0.619-0.667-1.301-0.608c-0.919,0.079-1.692-0.688-1.675-1.61
				c0.032-1.772-0.602-4.011-3.676-4.967c-5.455-1.698-8.856,3.572-9.193,7.504c-0.337,3.932,5.682,5.437,9.22,5.171
				c2.691-0.202,4.689,2.465,5.492,3.755C946.982,286.178,947.033,286.679,946.873,287.133z"/>

				<linearGradient id="SVGID_00000000925723129469976290000012508643916620509855_" gradientUnits="userSpaceOnUse" x1="3931.4036" y1="6134.0449" x2="3952.1597" y2="6112.7495" gradientTransform="matrix(-0.817 -0.5767 -0.5767 0.817 7705.3916 -2418.519)">
				<stop  offset="0" style="stop-color:#F9B776"/>
				<stop  offset="1" style="stop-color:#F47960"/>
			</linearGradient>
			<path style="fill:url(#SVGID_00000000925723129469976290000012508643916620509855_);" d="M947.63,300.017
				c0,0,0.881-6.826,3.721-7.161c2.84-0.335,5.604,1.999,2.78,5.831C950.619,303.453,947.63,300.017,947.63,300.017z"/>
		</g>
	</g>
	<g>

			<linearGradient id="SVGID_00000124136094677898409210000014607142817810788023_" gradientUnits="userSpaceOnUse" x1="615.2481" y1="523.5027" x2="502.0905" y2="627.7267">
			<stop  offset="0" style="stop-color:#53D8FF"/>
			<stop  offset="1" style="stop-color:#3840F7"/>
		</linearGradient>
		<path style="fill:url(#SVGID_00000124136094677898409210000014607142817810788023_);" d="M601.391,721.184h-215.06
			c-6.858,0-12.417-4.107-12.417-9.173V558.603c0-5.057,5.539-9.16,12.384-9.174l216.78-0.43c6.897-0.014,12.487,4.127,12.45,9.222
			l-1.72,153.837C613.771,717.107,608.222,721.184,601.391,721.184z"/>
		<path style="opacity:0.81;fill:#FFFFFF;" d="M459.649,600.417h-52.501c-4.004,0-7.25-3.246-7.25-7.25V576.4
			c0-4.004,3.246-7.25,7.25-7.25h52.501c4.004,0,7.25,3.246,7.25,7.25v16.767C466.899,597.172,463.653,600.417,459.649,600.417z"/>
		<path style="opacity:0.81;fill:#FFFFFF;" d="M591.185,591.484H484.656c-2.9,0-5.25-2.351-5.25-5.25v-4.687
			c0-2.9,2.35-5.25,5.25-5.25h106.529c2.9,0,5.25,2.35,5.25,5.25v4.687C596.435,589.133,594.084,591.484,591.185,591.484z"/>
		<g>
			<path style="fill:#A6E036;" d="M490.126,649.001v-1.985c0-0.423,0.179-0.827,0.493-1.111l1.926-1.742
				c4.09-3.659,6.078-5.761,6.135-7.95c0-1.527-0.922-2.736-3.082-2.736c-1.613,0-3.025,0.807-4.005,1.555l-0.782-1.982
				c-0.277-0.701-0.003-1.513,0.662-1.867c1.341-0.715,3.077-1.22,5.016-1.22c4.234,0,6.567,2.478,6.567,5.876
				c0,3.139-2.275,5.645-4.982,8.064l-1.728,1.441v0.057h5.559c0.827,0,1.498,0.671,1.498,1.498v0.604
				c0,0.827-0.671,1.498-1.498,1.498H490.126z"/>
			<path style="fill:#A6E036;" d="M513.867,647.503v-1.468c0-0.827-0.671-1.498-1.498-1.498h-6.797v-2.424
				c0-0.279,0.078-0.553,0.225-0.79l6.42-10.335c0.273-0.44,0.755-0.708,1.273-0.708h3.027c0.827,0,1.498,0.671,1.498,1.498v9.476
				h2.247v3.283h-2.247v2.966c0,0.827-0.671,1.498-1.498,1.498h-1.151C514.537,649.001,513.867,648.33,513.867,647.503z
				 M512.369,641.254c0.827,0,1.498-0.671,1.498-1.498v-2.65c0-1.123,0.057-2.276,0.144-3.485h-0.115
				c-0.596,1.192-1.081,2.273-1.701,3.434c-0.018,0.033-0.037,0.067-0.057,0.1l-2.476,4.042v0.057H512.369z"/>
			<path style="fill:#A6E036;" d="M522.114,649.001v-1.985c0-0.423,0.179-0.827,0.493-1.111l1.926-1.742
				c4.09-3.659,6.078-5.761,6.135-7.95c0-1.527-0.922-2.736-3.083-2.736c-1.612,0-3.024,0.807-4.003,1.555l-0.782-1.982
				c-0.277-0.701-0.003-1.513,0.662-1.867c1.341-0.715,3.077-1.22,5.016-1.22c4.234,0,6.567,2.478,6.567,5.876
				c0,3.139-2.275,5.645-4.982,8.064l-1.728,1.441v0.057h5.559c0.827,0,1.498,0.671,1.498,1.498v0.604
				c0,0.827-0.671,1.498-1.498,1.498H522.114z"/>
			<path style="fill:#A6E036;" d="M543.695,634.168h-0.057l-3.572,1.7l-0.463-2.112c-0.15-0.685,0.195-1.383,0.832-1.679
				l3.565-1.658c0.198-0.092,0.414-0.14,0.632-0.14h1.799c0.827,0,1.498,0.671,1.498,1.498v15.726c0,0.827-0.671,1.498-1.498,1.498
				h-1.237c-0.827,0-1.498-0.671-1.498-1.498V634.168z"/>
			<path style="fill:#A6E036;" d="M554.331,646.667c0-1.555,1.066-2.678,2.593-2.678s2.563,1.095,2.563,2.678
				c0,1.527-1.037,2.65-2.593,2.65C555.397,649.318,554.331,648.194,554.331,646.667z"/>
			<path style="fill:#A6E036;" d="M574.094,632.382c0,0.827-0.671,1.498-1.498,1.498h-5.76l-0.403,2.88
				c0.403-0.057,0.749-0.057,1.21-0.057c1.786,0,3.6,0.403,4.925,1.353c1.411,0.951,2.275,2.506,2.275,4.695
				c0,3.485-2.995,6.567-8.036,6.567c-1.54,0-2.909-0.238-3.954-0.561c-0.733-0.227-1.138-1.013-0.961-1.76l0.48-2.028
				c0.835,0.403,2.534,0.922,4.233,0.922c1.815,0,3.745-0.864,3.745-2.851c0-1.93-1.527-3.111-5.271-3.111
				c-1.038,0-1.758,0.057-2.535,0.172l1.073-8.511c0.094-0.749,0.731-1.311,1.486-1.311h7.493c0.827,0,1.498,0.671,1.498,1.498
				V632.382z"/>
			<path style="fill:#A6E036;" d="M585.335,647.503v-1.468c0-0.827-0.671-1.498-1.498-1.498h-6.797v-2.424
				c0-0.279,0.078-0.553,0.225-0.79l6.42-10.335c0.273-0.44,0.755-0.708,1.272-0.708h3.027c0.827,0,1.498,0.671,1.498,1.498v9.476
				h2.247v3.283h-2.247v2.966c0,0.827-0.671,1.498-1.498,1.498h-1.151C586.005,649.001,585.335,648.33,585.335,647.503z
				 M583.837,641.254c0.827,0,1.498-0.671,1.498-1.498v-2.65c0-1.123,0.057-2.276,0.144-3.485h-0.115
				c-0.596,1.192-1.081,2.273-1.701,3.434c-0.018,0.033-0.037,0.067-0.057,0.1l-2.476,4.042v0.057H583.837z"/>
			<path style="fill:#A6E036;" d="M536.029,674.567v2.909h-7.546v-2.909H536.029z"/>
			<path style="fill:#A6E036;" d="M545.855,682.084v-1.468c0-0.827-0.671-1.498-1.498-1.498h-6.797v-2.424
				c0-0.279,0.078-0.553,0.226-0.79l6.42-10.335c0.273-0.44,0.755-0.708,1.273-0.708h3.027c0.827,0,1.498,0.671,1.498,1.498v9.476
				h2.247v3.283h-2.247v2.966c0,0.827-0.671,1.498-1.498,1.498h-1.151C546.526,683.582,545.855,682.912,545.855,682.084z
				 M544.357,675.835c0.827,0,1.498-0.671,1.498-1.498v-2.65c0-1.123,0.057-2.276,0.144-3.485h-0.115
				c-0.596,1.192-1.081,2.273-1.701,3.434c-0.018,0.033-0.037,0.067-0.057,0.099l-2.476,4.042v0.057H544.357z"/>
			<path style="fill:#A6E036;" d="M554.332,681.249c0-1.555,1.066-2.678,2.593-2.678c1.527,0,2.563,1.094,2.563,2.678
				c0,1.527-1.037,2.65-2.593,2.65C555.398,683.899,554.332,682.776,554.332,681.249z"/>
			<path style="fill:#A6E036;" d="M567.181,668.749h-0.057l-3.572,1.699l-0.463-2.11c-0.15-0.685,0.195-1.383,0.832-1.679
				l3.565-1.658c0.198-0.092,0.413-0.14,0.632-0.14h1.799c0.827,0,1.498,0.671,1.498,1.498v15.726c0,0.827-0.671,1.498-1.498,1.498
				h-1.237c-0.827,0-1.498-0.671-1.498-1.498V668.749z"/>
			<path style="fill:#A6E036;" d="M591.01,664.86v2.422c0,0.226-0.051,0.449-0.15,0.652l-7.161,14.802
				c-0.25,0.517-0.774,0.846-1.349,0.846h-1.247c-1.12,0-1.844-1.184-1.333-2.181l6.602-12.882v-0.057h-7.084
				c-0.827,0-1.498-0.671-1.498-1.498v-0.605c0-0.827,0.671-1.498,1.498-1.498H591.01z"/>
		</g>
		<g>
			<rect x="417.986" y="632.647" style="fill:#A6E036;" width="12.108" height="37.013"/>
			<g>
				<polygon style="fill:#A6E036;" points="403.513,645.544 424.039,666.082 444.565,645.544 444.565,662.973 424.039,683.499
					403.513,662.973 				"/>
			</g>
		</g>
	</g>
	<g>
		<g>

				<linearGradient id="SVGID_00000114754558028429688660000005743803003742671273_" gradientUnits="userSpaceOnUse" x1="-1331.3043" y1="735.7321" x2="-1319.9563" y2="664.3496" gradientTransform="matrix(-1 0 0 1 -1070.5054 0)">
				<stop  offset="0" style="stop-color:#53D8FF"/>
				<stop  offset="1" style="stop-color:#3840F7"/>
			</linearGradient>
			<polygon style="fill:url(#SVGID_00000114754558028429688660000005743803003742671273_);" points="254.075,738.34 259.326,738.34
				259.326,681.561 254.075,681.561 			"/>

				<linearGradient id="SVGID_00000147918604330142690440000001891477966087094960_" gradientUnits="userSpaceOnUse" x1="-1326.7563" y1="736.4509" x2="-1315.4009" y2="665.0217" gradientTransform="matrix(-1 0 0 1 -1070.5054 0)">
				<stop  offset="0" style="stop-color:#53D8FF"/>
				<stop  offset="1" style="stop-color:#3840F7"/>
			</linearGradient>
			<path style="fill:url(#SVGID_00000147918604330142690440000001891477966087094960_);" d="M233.707,739.435h45.986v-0.045
				c0-1.863-1.51-3.372-3.372-3.372H237.08c-1.863,0-3.372,1.51-3.372,3.372V739.435z"/>

				<linearGradient id="SVGID_00000087403495448033900510000012948500204688018327_" gradientUnits="userSpaceOnUse" x1="-1335.5216" y1="735.0621" x2="-1324.1736" y2="663.679" gradientTransform="matrix(-1 0 0 1 -1070.5054 0)">
				<stop  offset="0" style="stop-color:#53D8FF"/>
				<stop  offset="1" style="stop-color:#3840F7"/>
			</linearGradient>
			<path style="fill:url(#SVGID_00000087403495448033900510000012948500204688018327_);" d="M226.883,679.59
				c0,3.106,2.541,5.646,5.646,5.646h46.526c3.105,0,5.646-2.541,5.646-5.646v-5.105c0-3.105-2.541-5.646-5.646-5.646h-46.526
				c-3.105,0-5.646,2.541-5.646,5.646V679.59z"/>
		</g>
		<g>

				<linearGradient id="SVGID_00000005267932441637945390000013519098937869442223_" gradientUnits="userSpaceOnUse" x1="-1384.5043" y1="690.2828" x2="-1347.1719" y2="690.2828" gradientTransform="matrix(-1 0 0 1 -1070.5054 0)">
				<stop  offset="0" style="stop-color:#F9B776"/>
				<stop  offset="1" style="stop-color:#F47960"/>
			</linearGradient>
			<path style="fill:url(#SVGID_00000005267932441637945390000013519098937869442223_);" d="M295.461,643.701
				c0,0,7.802,1.209,16.574,7.073c1.38,0.923,2.138,2.532,1.93,4.179c-1.05,8.32-5.369,35.249-19.61,61.551
				c-0.751,1.387-0.967,3.001-0.635,4.543l2.474,11.514l4.588,4.302h-11.818l-7.869-21.294l3.365-1.064
				c2.609-0.825,4.399-3.224,4.446-5.96l0.395-22.843c-0.337-10.177,6.24-17.199,6.24-17.199l-18.874-0.918L295.461,643.701z"/>

				<linearGradient id="SVGID_00000005961891707162357310000003603193738142762369_" gradientUnits="userSpaceOnUse" x1="-1361.6621" y1="714.6083" x2="-1367.1531" y2="798.8033" gradientTransform="matrix(-1 0 0 1 -1070.5054 0)">
				<stop  offset="0" style="stop-color:#FDF53F"/>
				<stop  offset="1" style="stop-color:#D93C65"/>
			</linearGradient>
			<path style="fill:url(#SVGID_00000005961891707162357310000003603193738142762369_);" d="M305.396,738.941
				c1.076,1.409-11.584,3.267-17.98,0.186c0,0-8.867-15.427-8.867-23.37c0,0,0.704-1.62,5.91-1.252c0,0,2.977,18.266,6.121,20.312
				c3.144,2.046,8.795,0.207,8.795,0.207S303.809,736.863,305.396,738.941z"/>

				<linearGradient id="SVGID_00000059994194088874828370000010060911588559135627_" gradientUnits="userSpaceOnUse" x1="-1428.3385" y1="692.8328" x2="-1349.5599" y2="692.8328" gradientTransform="matrix(-1 0 0 1 -1070.5054 0)">
				<stop  offset="0" style="stop-color:#F9B776"/>
				<stop  offset="1" style="stop-color:#F47960"/>
			</linearGradient>
			<path style="fill:url(#SVGID_00000059994194088874828370000010060911588559135627_);" d="M279.055,668.838
				c0.1-0.174,20.321-2.431,20.321-2.431s-0.662,6.148,1.406,14.612c2.068,8.463,31.756,45.131,31.756,45.131l-3.113,9.868
				c9.625,3.352,19.092,3.888,28.408,1.709l-19.292-11.577c0,0-18.055-61.527-29.114-72.504l-20.269-7.012L279.055,668.838z"/>

				<linearGradient id="SVGID_00000168115192848068791530000007396002527155630521_" gradientUnits="userSpaceOnUse" x1="260.31" y1="661.4175" x2="288.0407" y2="603.4352">
				<stop  offset="0" style="stop-color:#A737D5"/>
				<stop  offset="1" style="stop-color:#EF497A"/>
			</linearGradient>
			<path style="fill:url(#SVGID_00000168115192848068791530000007396002527155630521_);" d="M233.707,633.038
				c0,0-11.65,17.328-12.606,25.232c-0.956,7.904,3.191,11.116,15.415,11.645c12.224,0.53,44.856,0.521,44.856,0.521l27.851-23.803
				c0,0-20.297-7.242-25.574-9.29C278.373,635.295,233.707,633.038,233.707,633.038z"/>

				<linearGradient id="SVGID_00000150798054659466220900000010009955491682478773_" gradientUnits="userSpaceOnUse" x1="-1414.6493" y1="711.1526" x2="-1420.1403" y2="795.3478" gradientTransform="matrix(-1 0 0 1 -1070.5054 0)">
				<stop  offset="0" style="stop-color:#FDF53F"/>
				<stop  offset="1" style="stop-color:#D93C65"/>
			</linearGradient>
			<path style="fill:url(#SVGID_00000150798054659466220900000010009955491682478773_);" d="M330.601,732.694
				c0,0-3.351,3.246-1.087,6.858c0,0,26.548,4.706,33.756,2.571c0,0-1.497-3.416-9.613-7.305l0.599,0.46
				c0.758,0.582,0.313,1.794-0.641,1.739C348.267,736.712,337.198,735.732,330.601,732.694z"/>
		</g>
		<g>

				<linearGradient id="SVGID_00000012436288501519264260000018443161882640221883_" gradientUnits="userSpaceOnUse" x1="219.8192" y1="513.9272" x2="229.903" y2="599.6404">
				<stop  offset="0" style="stop-color:#C32B78"/>
				<stop  offset="1" style="stop-color:#593092"/>
			</linearGradient>
			<path style="fill:url(#SVGID_00000012436288501519264260000018443161882640221883_);" d="M279.378,544.831
				c5.529-5.897,7.761-10.845,6.65-16.665c-1.635-8.56-15.784-15.941-28.333-10.044c-13.099,6.157-9.381,22.668-23.071,29.544
				c-10.694,5.371-17.574-2.389-30.465-0.169c-21.386,3.683-42.184,31.883-38.678,53.185c5.731,34.823,76.532,51.925,96.155,32.442
				C279.043,615.842,253.406,572.529,279.378,544.831z"/>

				<linearGradient id="SVGID_00000170959017571762566570000015606110778855039422_" gradientUnits="userSpaceOnUse" x1="210.4989" y1="550.1108" x2="262.179" y2="608.0933">
				<stop  offset="0" style="stop-color:#A737D5"/>
				<stop  offset="1" style="stop-color:#EF497A"/>
			</linearGradient>
			<path style="fill:url(#SVGID_00000170959017571762566570000015606110778855039422_);" d="M265.213,630.744
				c0,0,13.566-12.918,20.244-21.474c3.61-4.625,4.743-10.714,3.074-16.338c-3.049-10.272-8.467-20.91-8.961-22.566
				c-0.757-2.538-15.969-2.432-15.969-2.432s-29.933,19.427-41.694,52.334l13.208,4.112c0,0,7.816-13.112,15.538-21.448
				c0,0-13.362,17.652-13.833,24.878L265.213,630.744z"/>

				<linearGradient id="SVGID_00000077319415643473477920000017028123944481393334_" gradientUnits="userSpaceOnUse" x1="-1339.8536" y1="584.7118" x2="-1343.7941" y2="559.4279" gradientTransform="matrix(-1 0 0 1 -1070.5054 0)">
				<stop  offset="0" style="stop-color:#F9B776"/>
				<stop  offset="1" style="stop-color:#F47960"/>
			</linearGradient>
			<path style="fill:url(#SVGID_00000077319415643473477920000017028123944481393334_);" d="M281.41,556.182
				c-0.159,0.527-4.129,13.689-4.44,13.963c-0.311,0.273-8.707,0.725-12.659-1.976l6.705-14.036L281.41,556.182z"/>

				<linearGradient id="SVGID_00000138545465190838533390000008607681228481421245_" gradientUnits="userSpaceOnUse" x1="-1356.8846" y1="537.0618" x2="-1322.0784" y2="560.7039" gradientTransform="matrix(-1 0 0 1 -1070.5054 0)">
				<stop  offset="0" style="stop-color:#F9B776"/>
				<stop  offset="1" style="stop-color:#F47960"/>
			</linearGradient>
			<path style="fill:url(#SVGID_00000138545465190838533390000008607681228481421245_);" d="M274.888,528.536
				c0,0,7.168,3.027,12.041,13.384c4.874,10.357,1.234,15.139-3.337,15.796c-4.572,0.656-11.408,0.556-18.639-6.134
				C257.721,544.891,265.571,524.949,274.888,528.536z"/>

				<linearGradient id="SVGID_00000028283505725512877850000013536710346804544644_" gradientUnits="userSpaceOnUse" x1="264.4874" y1="508.6721" x2="274.5713" y2="594.3851">
				<stop  offset="0" style="stop-color:#C32B78"/>
				<stop  offset="1" style="stop-color:#593092"/>
			</linearGradient>
			<path style="fill:url(#SVGID_00000028283505725512877850000013536710346804544644_);" d="M269.814,546.052
				c0,0-5.408-15.153,8.027-15.332l3.161,2.21c0,0,4.929-8.401-3.161-12.412c-8.091-4.01-20.163-0.44-23.606,10.46
				c-3.443,10.9-1.428,17.938,4.3,23.153c5.728,5.215,8.089-0.698,8.089-0.698s-3.119-4.878-1.849-7.487
				c1.27-2.61,4.199,0.54,4.199,0.54L269.814,546.052z"/>

				<linearGradient id="SVGID_00000083081188373895070670000008530696872869284259_" gradientUnits="userSpaceOnUse" x1="-1354.7988" y1="533.9902" x2="-1319.9918" y2="557.6326" gradientTransform="matrix(-1 0 0 1 -1070.5054 0)">
				<stop  offset="0" style="stop-color:#F9B776"/>
				<stop  offset="1" style="stop-color:#F47960"/>
			</linearGradient>
			<path style="fill:url(#SVGID_00000083081188373895070670000008530696872869284259_);" d="M268.307,547.74
				c0,0-2.734-7.806-6.382-4.697c-3.647,3.109,2.965,7.21,5.553,8.539L268.307,547.74z"/>

				<linearGradient id="SVGID_00000116237387155903903270000014110133290717881479_" gradientUnits="userSpaceOnUse" x1="-1317.2323" y1="628.4906" x2="-1243.2295" y2="628.4906" gradientTransform="matrix(-1 0 0 1 -1070.5054 0)">
				<stop  offset="0" style="stop-color:#F9B776"/>
				<stop  offset="1" style="stop-color:#F47960"/>
			</linearGradient>
			<path style="fill:url(#SVGID_00000116237387155903903270000014110133290717881479_);" d="M292.851,631.703l-9.967-9.607
				l-13.789,5.825c0,0-13.725,2.127-21.58,0c-7.855-2.126-7.855-2.126-7.855-2.126l-17.752-5.526l-2.788,7.879
				c-0.708,2.001,0.003,4.221,1.733,5.451c1.536,1.091,3.336,2.291,4.483,2.793c2.338,1.023,57.627-0.707,57.627-0.707
				L292.851,631.703z"/>
		</g>
		<g>

				<linearGradient id="SVGID_00000099638201239180060610000008936447931130625691_" gradientUnits="userSpaceOnUse" x1="-1379.5959" y1="672.3002" x2="-1426.1813" y2="685.0679" gradientTransform="matrix(-0.9988 -0.0494 -0.0494 0.9988 -1099.4073 -118.7758)">
				<stop  offset="0" style="stop-color:#2B3582"/>
				<stop  offset="1" style="stop-color:#150E42"/>
			</linearGradient>
			<path style="fill:url(#SVGID_00000099638201239180060610000008936447931130625691_);" d="M255.131,636.232
				c0.044,0.002,0.089,0.003,0.133,0.003l57.819-0.063c1.429-0.001,2.587-1.161,2.585-2.591c-0.001-1.43-1.166-2.611-2.591-2.585
				l-57.819,0.063c-1.429,0.001-2.587,1.161-2.585,2.591C252.675,635.035,253.764,636.165,255.131,636.232z"/>

				<linearGradient id="SVGID_00000119808397161220331050000018156942992325067141_" gradientUnits="userSpaceOnUse" x1="-1378.8779" y1="590.7751" x2="-1411.9323" y2="625.7115" gradientTransform="matrix(-1 0 0 1 -1070.5054 0)">
				<stop  offset="0" style="stop-color:#2B3582"/>
				<stop  offset="1" style="stop-color:#150E42"/>
			</linearGradient>
			<path style="fill:url(#SVGID_00000119808397161220331050000018156942992325067141_);" d="M365.06,583.736h-48.152
				c-3.552,0-6.785,2.05-8.301,5.263l-22.261,47.203h59.84c2.289,0,4.346-1.399,5.187-3.528l17.262-43.679
				C369.634,586.471,367.774,583.736,365.06,583.736z"/>

				<linearGradient id="SVGID_00000105412112467338688880000014621808612253691304_" gradientUnits="userSpaceOnUse" x1="-1398.8607" y1="599.474" x2="-1413.8588" y2="622.0593" gradientTransform="matrix(-1 0 0 1 -1070.5054 0)">
				<stop  offset="0" style="stop-color:#FDF53F"/>
				<stop  offset="1" style="stop-color:#D93C65"/>
			</linearGradient>
			<path style="fill:url(#SVGID_00000105412112467338688880000014621808612253691304_);" d="M331.137,607.938
				c-1.043,3.242-0.273,6.39,1.722,7.032c1.994,0.642,4.457-1.466,5.501-4.708c1.043-3.242,0.273-6.391-1.722-7.032
				C334.643,602.588,332.18,604.696,331.137,607.938z"/>
		</g>
		<g>

				<linearGradient id="SVGID_00000139285558956647349350000013453333552311762580_" gradientUnits="userSpaceOnUse" x1="-1491.1907" y1="641.1581" x2="-1244.7802" y2="641.1581" gradientTransform="matrix(-1 0 0 1 -1070.5054 0)">
				<stop  offset="0" style="stop-color:#9CFFFB"/>
				<stop  offset="1" style="stop-color:#9BFFFA"/>
			</linearGradient>
			<path style="fill:url(#SVGID_00000139285558956647349350000013453333552311762580_);" d="M174.318,638.344
				c-0.135-0.655,0.049-1.333,0.502-1.848c0.453-0.515,1.128-0.813,1.841-0.813h241.278c0.937,0,1.809,0.448,2.313,1.187
				s0.572,1.669,0.18,2.467l-2.615,5.305c-0.599,1.215-1.896,1.993-3.323,1.993H178.316c-1.328,0-2.469-0.883-2.721-2.105
				L174.318,638.344z"/>
			<g>

					<linearGradient id="SVGID_00000054963020959418429930000005335394341811351940_" gradientUnits="userSpaceOnUse" x1="-1477.0381" y1="695.1675" x2="-1428.3951" y2="695.1675" gradientTransform="matrix(-1 0 0 1 -1070.5054 0)">
					<stop  offset="0" style="stop-color:#9CFFFB"/>
					<stop  offset="1" style="stop-color:#9BFFFA"/>
				</linearGradient>
				<path style="fill:url(#SVGID_00000054963020959418429930000005335394341811351940_);" d="M404.416,750.145
					c0.279,0,0.563-0.057,0.836-0.177c1.074-0.473,1.57-1.747,1.108-2.846L361.953,641.5c-0.462-1.099-1.707-1.606-2.782-1.134
					c-1.074,0.473-1.57,1.747-1.108,2.846l44.407,105.622C402.814,749.654,403.595,750.145,404.416,750.145z"/>

					<linearGradient id="SVGID_00000137818707880368847570000009993036885357479325_" gradientUnits="userSpaceOnUse" x1="-1471.4208" y1="695.1674" x2="-1422.7778" y2="695.1674" gradientTransform="matrix(-1 0 0 1 -1070.5054 0)">
					<stop  offset="0" style="stop-color:#9CFFFB"/>
					<stop  offset="1" style="stop-color:#9BFFFA"/>
				</linearGradient>
				<path style="fill:url(#SVGID_00000137818707880368847570000009993036885357479325_);" d="M354.389,750.145
					c0.821,0,1.602-0.491,1.946-1.311l44.407-105.622c0.462-1.099-0.034-2.373-1.108-2.846c-1.074-0.473-2.319,0.035-2.782,1.134
					l-44.407,105.622c-0.462,1.099,0.034,2.373,1.108,2.846C353.826,750.088,354.11,750.145,354.389,750.145z"/>

					<linearGradient id="SVGID_00000004518141658194247900000002943903196866357895_" gradientUnits="userSpaceOnUse" x1="-1302.1682" y1="695.1675" x2="-1253.5253" y2="695.1675" gradientTransform="matrix(-1 0 0 1 -1070.5054 0)">
					<stop  offset="0" style="stop-color:#9CFFFB"/>
					<stop  offset="1" style="stop-color:#9BFFFA"/>
				</linearGradient>
				<path style="fill:url(#SVGID_00000004518141658194247900000002943903196866357895_);" d="M229.546,750.145
					c0.279,0,0.563-0.057,0.836-0.177c1.074-0.473,1.57-1.747,1.108-2.846L187.083,641.5c-0.462-1.099-1.706-1.606-2.782-1.134
					c-1.074,0.473-1.57,1.747-1.108,2.846L227.6,748.834C227.944,749.654,228.725,750.145,229.546,750.145z"/>

					<linearGradient id="SVGID_00000014619942897564613470000005582439265855831681_" gradientUnits="userSpaceOnUse" x1="-1296.5511" y1="695.1674" x2="-1247.9082" y2="695.1674" gradientTransform="matrix(-1 0 0 1 -1070.5054 0)">
					<stop  offset="0" style="stop-color:#9CFFFB"/>
					<stop  offset="1" style="stop-color:#9BFFFA"/>
				</linearGradient>
				<path style="fill:url(#SVGID_00000014619942897564613470000005582439265855831681_);" d="M179.52,750.145
					c0.821,0,1.602-0.491,1.946-1.311l44.407-105.622c0.462-1.099-0.034-2.373-1.108-2.846c-1.073-0.473-2.319,0.035-2.782,1.134
					l-44.407,105.622c-0.462,1.099,0.034,2.373,1.108,2.846C178.956,750.088,179.241,750.145,179.52,750.145z"/>
			</g>
		</g>
	</g>
	<g>
		<g>

				<linearGradient id="SVGID_00000127735339076635404700000008509895498134561944_" gradientUnits="userSpaceOnUse" x1="366.0866" y1="-2540.1238" x2="235.3244" y2="-2028.9611" gradientTransform="matrix(1 0 0 -1 0 -2140)">
				<stop  offset="0" style="stop-color:#53D8FF"/>
				<stop  offset="1" style="stop-color:#3840F7"/>
			</linearGradient>
			<path style="fill:url(#SVGID_00000127735339076635404700000008509895498134561944_);" d="M424.074,239.074l-93.253,128.34
				c-2.506,3.448-10.301,3.448-12.806,0l-93.254-128.34c-2.128-2.928,1.278-6.259,6.403-6.259h30.234
				c3.887,0,7.039-1.98,7.039-4.423V90.424c0-2.443,3.152-4.424,7.038-4.424h97.883c3.887,0,7.039,1.98,7.039,4.424v137.968
				c0,2.443,3.152,4.423,7.038,4.423h30.236C422.796,232.815,426.203,236.145,424.074,239.074z"/>
		</g>
		<g style="opacity:0.68;">
			<path style="fill:#FFFFFF;" d="M278.441,125.755c0.189-0.82,1.067-1.278,1.841-0.95c1.784,0.757,4.046,1.372,6.362,1.372
				c3.24,0,4.953-1.433,4.953-3.608c0-2.076-1.481-3.263-5.23-4.697c-5.184-1.928-8.563-4.993-8.563-9.837
				c0-5.685,4.444-10.035,11.803-10.035c2.873,0,5.129,0.528,6.868,1.206c0.635,0.248,0.973,0.942,0.802,1.602l-0.877,3.388
				c-0.202,0.78-1.038,1.232-1.789,0.94c-1.274-0.497-3.005-0.957-5.143-0.957c-3.055,0-4.536,1.483-4.536,3.213
				c0,2.125,1.759,3.065,5.786,4.696c5.508,2.175,8.1,5.24,8.1,9.936c0,5.586-4.027,10.332-12.59,10.332
				c-2.984,0-5.937-0.693-7.851-1.529c-0.589-0.257-0.894-0.913-0.75-1.539L278.441,125.755z"/>
			<path style="fill:#FFFFFF;" d="M320.788,117.774h-8.758c-0.751,0-1.36,0.609-1.36,1.36v5.189c0,0.751,0.609,1.36,1.36,1.36h10.1
				c0.751,0,1.36,0.609,1.36,1.36v3.458c0,0.751-0.609,1.36-1.36,1.36h-17.182c-0.751,0-1.36-0.609-1.36-1.36V99.904
				c0-0.751,0.609-1.36,1.36-1.36h16.535c0.751,0,1.36,0.609,1.36,1.36v3.459c0,0.751-0.609,1.36-1.36,1.36h-9.453
				c-0.751,0-1.36,0.609-1.36,1.36v4.2c0,0.751,0.609,1.36,1.36,1.36h8.758c0.751,0,1.36,0.609,1.36,1.36v3.41
				C322.149,117.165,321.54,117.774,320.788,117.774z"/>
			<path style="fill:#FFFFFF;" d="M329.667,98.543h4.361c0.751,0,1.36,0.609,1.36,1.36v25.631h11.044c0.751,0,1.36,0.609,1.36,1.36
				v3.607c0,0.751-0.609,1.36-1.36,1.36h-16.766c-0.751,0-1.36-0.609-1.36-1.36V99.904
				C328.307,99.152,328.916,98.543,329.667,98.543z"/>
			<path style="fill:#FFFFFF;" d="M353.322,98.543h4.361c0.751,0,1.36,0.609,1.36,1.36v25.631h11.044c0.751,0,1.36,0.609,1.36,1.36
				v3.607c0,0.751-0.609,1.36-1.36,1.36h-16.766c-0.751,0-1.36-0.609-1.36-1.36V99.904
				C351.961,99.152,352.571,98.543,353.322,98.543z"/>
		</g>
	</g>
</g>
</svg>
